700 1139 1 0        
16 Autodesk AutoCAD 20 ASM 231.1.0.65535 NT 24 Mon Sep  1 23:08:45 2025 
1 9.999999999999999547e-07 1.000000000000000036e-10 
body $1 -1 $-1 $2 $-1 $3 #
name_attrib-gen-attrib $-1 -1 $-1 $-1 $0 keep keep_kept ignore copy @36 F9784417-6BDB-42AB-A0F5-F66B09D18C29 #
lump $4 -1 $-1 $-1 $5 $0 #
transform $-1 -1 1 0 0 0 -1.836970198721029688e-16 -1 0 1 -1.836970198721029688e-16 626.65707420399292 439.8588683063777012 10.94000000000000128 1 rotate no_reflect no_shear #
rgb_color-st-attrib $-1 -1 $-1 $-1 $2 0.7921568627450980005 0.8196078431372548767 0.9333333333333333481 #
shell $-1 -1 $-1 $-1 $-1 $6 $-1 $2 #
face $7 -1 $-1 $8 $9 $5 $-1 $10 forward single #
color-adesk-attrib $-1 -1 $11 $-1 $6 256 #
face $12 -1 $-1 $13 $14 $5 $-1 $15 reversed single #
loop $-1 -1 $-1 $16 $17 $6 #
plane-surface $-1 -1 $-1 2.081296589566406841 0 -0.04102021670349706439 0 -1 0 0 0 -1000 forward_v I I I I #
integer_attrib-name_attrib-gen-attrib $-1 -1 $18 $7 $6 copy keep_kept ignore copy @17 ???????-????????3 0 #
color-adesk-attrib $-1 -1 $19 $-1 $8 256 #
face $20 -1 $-1 $21 $22 $5 $-1 $23 reversed single #
loop $-1 -1 $-1 $-1 $24 $8 #
plane-surface $-1 -1 $-1 -1.030978426947924964 3.100000000000000089 1.32897978329651667 -1.130780601012261912e-14 0 -1 -1000 0 1.130780601012261888e-11 forward_v I I I I #
loop $-1 -1 $-1 $25 $26 $6 #
coedge $-1 -1 $-1 $27 $28 $29 $30 reversed $9 $-1 #
rgb_color-st-attrib $-1 -1 $-1 $11 $6 0.1019607843137254888 0.1019607843137254888 0.1019607843137254888 #
integer_attrib-name_attrib-gen-attrib $-1 -1 $31 $12 $8 copy keep_kept ignore copy @17 ???????-????????3 0 #
color-adesk-attrib $-1 -1 $32 $-1 $13 256 #
face $33 -1 $-1 $34 $35 $5 $-1 $36 reversed single #
loop $-1 -1 $-1 $-1 $29 $13 #
plane-surface $-1 -1 $-1 -1.888703410433543617 3.100000000000000089 -0.0410202167035110879 1 0 5.375771664312302184e-14 5.37577166431230229e-11 0 -1000 forward_v I I I I #
coedge $-1 -1 $-1 $37 $38 $39 $40 reversed $14 $-1 #
loop $-1 -1 $-1 $41 $42 $6 #
coedge $-1 -1 $-1 $43 $44 $45 $46 reversed $16 $-1 #
coedge $-1 -1 $-1 $47 $17 $48 $49 reversed $9 $-1 #
coedge $-1 -1 $-1 $17 $50 $51 $52 reversed $9 $-1 #
coedge $-1 -1 $-1 $53 $54 $17 $30 forward $22 $-1 #
edge $55 -1 $-1 $56 -6.245004513517699145e-20 $57 0.0005122750165143914952 $29 $58 forward @7 unknown #
rgb_color-st-attrib $-1 -1 $-1 $19 $8 0.1019607843137254888 0.1019607843137254888 0.1019607843137254888 #
integer_attrib-name_attrib-gen-attrib $-1 -1 $59 $20 $13 copy keep_kept ignore copy @17 ???????-????????3 0 #
color-adesk-attrib $-1 -1 $60 $-1 $21 256 #
face $61 -1 $-1 $62 $63 $5 $-1 $64 reversed single #
loop $-1 -1 $-1 $-1 $51 $21 #
plane-surface $-1 -1 $-1 -1.88870341043357115 3.100000000000000089 0.4712547998108803093 0.707106781186543687 0 -0.7071067811865514585 -707.1067811865514159 0 -707.1067811865436852 forward_v I I I I #
coedge $-1 -1 $-1 $65 $24 $66 $67 reversed $14 $-1 #
coedge $-1 -1 $-1 $24 $65 $50 $68 forward $14 $-1 #
coedge $-1 -1 $-1 $69 $70 $24 $40 forward $63 $-1 #
edge $71 -1 $-1 $72 0 $73 0.003099999999999999891 $39 $74 forward @7 unknown #
loop $-1 -1 $-1 $-1 $75 $6 #
coedge $-1 -1 $-1 $76 $77 $78 $79 reversed $25 $-1 #
coedge $-1 -1 $-1 $80 $26 $81 $82 forward $16 $-1 #
coedge $-1 -1 $-1 $26 $80 $83 $84 reversed $16 $-1 #
coedge $-1 -1 $-1 $85 $86 $26 $46 forward $87 $-1 #
edge $88 -1 $-1 $89 0 $90 0.0004400000000000000699 $45 $91 forward @7 unknown #
coedge $-1 -1 $-1 $92 $27 $93 $94 reversed $9 $-1 #
coedge $-1 -1 $-1 $95 $96 $27 $49 forward $97 $-1 #
edge $98 -1 $-1 $99 -3.141592653589793116 $56 -1.570796326794896558 $48 $100 forward @7 unknown #
coedge $-1 -1 $-1 $28 $101 $38 $68 reversed $9 $-1 #
coedge $-1 -1 $-1 $102 $103 $28 $52 forward $35 $-1 #
edge $104 -1 $-1 $57 0 $105 0.001213006304431632877 $51 $106 forward @7 unknown #
coedge $-1 -1 $-1 $107 $29 $103 $108 reversed $22 $-1 #
coedge $-1 -1 $-1 $29 $107 $95 $109 forward $22 $-1 #
color-adesk-attrib $-1 -1 $-1 $-1 $30 256 #
vertex $-1 -1 $-1 $49 $110 #
vertex $-1 -1 $-1 $52 $111 #
straight-curve $-1 -1 $-1 -1.888703410433543617 0 -0.0410202167035110879 -5.375771664312300997e-11 0 1000 I I #
rgb_color-st-attrib $-1 -1 $-1 $32 $13 0.1019607843137254888 0.1019607843137254888 0.1019607843137254888 #
integer_attrib-name_attrib-gen-attrib $-1 -1 $112 $33 $21 copy keep_kept ignore copy @17 ???????-????????3 0 #
color-adesk-attrib $-1 -1 $113 $-1 $34 256 #
face $114 -1 $-1 $115 $116 $5 $-1 $117 reversed single #
loop $-1 -1 $-1 $-1 $69 $34 #
plane-surface $-1 -1 $-1 2.281296589566419897 3.100000000000000089 0.4712547998108796432 -0.7071067811865442421 0 -0.7071067811865507924 -707.1067811865508475 0 707.1067811865442536 forward_v I I I I #
coedge $-1 -1 $-1 $38 $37 $102 $118 forward $14 $-1 #
coedge $-1 -1 $-1 $119 $120 $37 $67 forward $121 $-1 #
edge $122 -1 $-1 $123 0 $72 0.002454550033028727544 $66 $124 forward @7 unknown #
edge $125 -1 $-1 $105 0 $73 0.002454550033028727544 $38 $126 forward @7 unknown #
coedge $-1 -1 $-1 $127 $39 $101 $128 forward $63 $-1 #
coedge $-1 -1 $-1 $39 $127 $119 $129 reversed $63 $-1 #
color-adesk-attrib $-1 -1 $-1 $-1 $40 256 #
vertex $-1 -1 $-1 $67 $130 #
vertex $-1 -1 $-1 $68 $131 #
straight-curve $-1 -1 $-1 1.423571606080802576 3.100000000000000089 1.328979783296488915 -0 -1000 -0 I I #
coedge $-1 -1 $-1 $132 $133 $134 $135 reversed $41 $-1 #
coedge $-1 -1 $-1 $136 $42 $137 $138 forward $25 $-1 #
coedge $-1 -1 $-1 $42 $136 $139 $140 reversed $25 $-1 #
coedge $-1 -1 $-1 $141 $142 $42 $79 forward $143 $-1 #
edge $144 -1 $-1 $145 0 $146 0.0004400000000000000699 $78 $147 forward @7 unknown #
coedge $-1 -1 $-1 $44 $43 $148 $149 forward $16 $-1 #
coedge $-1 -1 $-1 $150 $151 $43 $82 reversed $152 $-1 #
edge $153 -1 $-1 $89 -0.0004799999999999999037 $154 7.632783294297951976e-20 $43 $155 forward @7 unknown #
coedge $-1 -1 $-1 $156 $157 $44 $84 forward $158 $-1 #
edge $159 -1 $-1 $90 -0.0004800000000000000664 $160 -0 $83 $161 forward @7 unknown #
coedge $-1 -1 $-1 $162 $45 $157 $163 reversed $87 $-1 #
coedge $-1 -1 $-1 $45 $162 $150 $164 forward $87 $-1 #
loop $-1 -1 $-1 $-1 $85 $165 #
color-adesk-attrib $-1 -1 $-1 $-1 $46 256 #
vertex $-1 -1 $-1 $46 $166 #
vertex $-1 -1 $-1 $84 $167 #
straight-curve $-1 -1 $-1 0.4362965895664387972 1.192362058016962479e-16 0.03125479981087999487 0 0 1000 I I #
coedge $-1 -1 $-1 $168 $47 $169 $170 reversed $9 $-1 #
coedge $-1 -1 $-1 $171 $172 $47 $94 forward $173 $-1 #
edge $174 -1 $-1 $175 -0.00376999999999995004 $99 -0 $93 $176 forward @7 unknown #
coedge $-1 -1 $-1 $177 $48 $54 $109 reversed $97 $-1 #
coedge $-1 -1 $-1 $48 $177 $171 $178 forward $97 $-1 #
loop $-1 -1 $-1 $-1 $48 $179 #
color-adesk-attrib $-1 -1 $-1 $-1 $49 256 #
vertex $-1 -1 $-1 $94 $180 #
ellipse-curve $-1 -1 $-1 -1.688703410433543217 0 -0.04102021670351111565 0 1 0 0 0 0.2000000000000001499 1 I I #
coedge $-1 -1 $-1 $50 $168 $69 $128 reversed $9 $-1 #
coedge $-1 -1 $-1 $181 $51 $65 $118 reversed $35 $-1 #
coedge $-1 -1 $-1 $51 $181 $53 $108 forward $35 $-1 #
color-adesk-attrib $-1 -1 $-1 $-1 $52 256 #
vertex $-1 -1 $-1 $52 $182 #
straight-curve $-1 -1 $-1 -1.88870341043357115 0 0.4712547998108803093 707.1067811865514159 0 707.1067811865435715 I I #
coedge $-1 -1 $-1 $54 $53 $183 $184 reversed $22 $-1 #
edge $185 -1 $-1 $186 -0 $57 0.003099999999999999891 $103 $187 forward @7 unknown #
edge $188 -1 $-1 $189 -0 $56 0.003099999999999999891 $54 $190 forward @7 unknown #
point $-1 -1 $-1 -1.888703410433543395 0 -0.04102021670351115035 #
point $-1 -1 $-1 -1.88870341043357115 0 0.4712547998108803093 #
rgb_color-st-attrib $-1 -1 $-1 $60 $21 0.1019607843137254888 0.1019607843137254888 0.1019607843137254888 #
integer_attrib-name_attrib-gen-attrib $-1 -1 $191 $61 $34 copy keep_kept ignore copy @17 ???????-????????3 0 #
color-adesk-attrib $-1 -1 $192 $-1 $62 256 #
face $193 -1 $-1 $194 $195 $5 $-1 $196 forward single #
loop $-1 -1 $-1 $-1 $197 $62 #
plane-surface $-1 -1 $-1 2.281296589566406574 3.100000000000000089 -0.04102021670349709215 -1 0 2.624392466042301308e-14 2.624392466042301227e-11 0 1000 forward_v I I I I #
edge $198 -1 $-1 $123 -2.168404344971008868e-19 $105 0.003099999999999999891 $65 $199 forward @7 unknown #
coedge $-1 -1 $-1 $200 $66 $70 $129 forward $121 $-1 #
coedge $-1 -1 $-1 $66 $183 $181 $201 forward $121 $-1 #
loop $-1 -1 $-1 $-1 $183 $202 #
color-adesk-attrib $-1 -1 $-1 $-1 $67 256 #
vertex $-1 -1 $-1 $201 $203 #
straight-curve $-1 -1 $-1 -1.030978426947924964 3.100000000000000089 1.32897978329651667 1000 0 -1.130780601012261727e-11 I I #
color-adesk-attrib $-1 -1 $-1 $-1 $68 256 #
straight-curve $-1 -1 $-1 -1.030978426947924964 0 1.32897978329651667 1000 0 -1.130780601012261727e-11 I I #
coedge $-1 -1 $-1 $70 $69 $204 $205 reversed $63 $-1 #
edge $206 -1 $-1 $73 -0.001213006304431593196 $207 0 $69 $208 forward @7 unknown #
edge $209 -1 $-1 $72 -0.001213006304431593196 $210 0 $119 $211 forward @7 unknown #
point $-1 -1 $-1 1.423571606080802576 3.100000000000000089 1.328979783296488915 #
point $-1 -1 $-1 1.423571606080802576 0 1.328979783296488915 #
coedge $-1 -1 $-1 $212 $75 $213 $214 forward $41 $-1 #
coedge $-1 -1 $-1 $75 $212 $215 $216 reversed $41 $-1 #
coedge $-1 -1 $-1 $217 $218 $75 $135 forward $219 $-1 #
edge $220 -1 $-1 $221 0 $222 0.0004400000000000000699 $134 $223 forward @7 unknown #
coedge $-1 -1 $-1 $77 $76 $224 $225 forward $25 $-1 #
coedge $-1 -1 $-1 $226 $227 $76 $138 reversed $228 $-1 #
edge $229 -1 $-1 $145 -0.0004799999999999995243 $230 9.717256290267093682e-36 $76 $231 forward @7 unknown #
coedge $-1 -1 $-1 $232 $233 $77 $140 forward $234 $-1 #
edge $235 -1 $-1 $146 -0.0004799999999999995243 $236 -0 $139 $237 forward @7 unknown #
coedge $-1 -1 $-1 $238 $78 $233 $239 reversed $143 $-1 #
coedge $-1 -1 $-1 $78 $238 $226 $240 forward $143 $-1 #
loop $-1 -1 $-1 $-1 $141 $241 #
color-adesk-attrib $-1 -1 $-1 $-1 $79 256 #
vertex $-1 -1 $-1 $79 $242 #
vertex $-1 -1 $-1 $140 $243 #
straight-curve $-1 -1 $-1 1.706296589566438593 1.381304655254205134e-16 0.03125479981087999487 0 0 1000 I I #
coedge $-1 -1 $-1 $244 $245 $80 $149 reversed $246 $-1 #
edge $247 -1 $-1 $154 0 $160 0.0004400000000000000699 $80 $248 forward @7 unknown #
coedge $-1 -1 $-1 $249 $81 $86 $164 reversed $152 $-1 #
coedge $-1 -1 $-1 $81 $250 $244 $251 reversed $152 $-1 #
loop $-1 -1 $-1 $-1 $151 $252 #
color-adesk-attrib $-1 -1 $-1 $-1 $82 256 #
vertex $-1 -1 $-1 $82 $253 #
straight-curve $-1 -1 $-1 -0.04370341043356116423 6.045315944262330081e-17 0.03125479981087999487 -1000 -1.224646799147353249e-13 -0 I I #
coedge $-1 -1 $-1 $254 $83 $245 $255 forward $158 $-1 #
coedge $-1 -1 $-1 $83 $256 $85 $163 forward $158 $-1 #
loop $-1 -1 $-1 $-1 $156 $257 #
color-adesk-attrib $-1 -1 $-1 $-1 $84 256 #
vertex $-1 -1 $-1 $149 $258 #
straight-curve $-1 -1 $-1 -0.04370341043356116423 6.045315944262330081e-17 0.4712547998108800318 -1000 -1.224646799147353249e-13 -0 I I #
coedge $-1 -1 $-1 $86 $85 $259 $260 reversed $87 $-1 #
edge $261 -1 $-1 $262 -0.001803314487555309148 $90 -1.192362058016962737e-19 $157 $263 forward @7 unknown #
edge $264 -1 $-1 $265 -0.001803314487555309148 $89 -1.192362058016962496e-19 $86 $266 forward @7 unknown #
face $267 -1 $-1 $268 $87 $5 $-1 $269 forward single #
point $-1 -1 $-1 0.4362965895664387417 0 0.03125479981087999487 #
point $-1 -1 $-1 0.4362965895664389082 0 0.4712547998108800318 #
coedge $-1 -1 $-1 $101 $92 $197 $270 reversed $9 $-1 #
coedge $-1 -1 $-1 $271 $272 $92 $170 forward $195 $-1 #
edge $273 -1 $-1 $274 -1.570796326794896558 $175 0 $169 $275 forward @7 unknown #
coedge $-1 -1 $-1 $276 $93 $96 $178 reversed $173 $-1 #
coedge $-1 -1 $-1 $93 $276 $271 $277 forward $173 $-1 #
loop $-1 -1 $-1 $-1 $93 $194 #
color-adesk-attrib $-1 -1 $-1 $-1 $94 256 #
vertex $-1 -1 $-1 $170 $278 #
straight-curve $-1 -1 $-1 -1.688703410433543217 0 -0.2410202167035111753 -1000 -0 -3.731438511405731382e-12 I I #
coedge $-1 -1 $-1 $96 $95 $279 $280 reversed $97 $-1 #
edge $281 -1 $-1 $282 -0 $99 0.003099999999999999891 $96 $283 forward @7 unknown #
face $284 -1 $-1 $202 $97 $5 $-1 $285 forward single #
point $-1 -1 $-1 -1.688703410433543217 0 -0.2410202167035111753 #
coedge $-1 -1 $-1 $103 $102 $120 $201 reversed $35 $-1 #
point $-1 -1 $-1 -1.030978426947924964 0 1.32897978329651667 #
coedge $-1 -1 $-1 $120 $279 $107 $184 forward $121 $-1 #
edge $286 -1 $-1 $189 -6.245004513517699145e-20 $186 0.0005122750165143914952 $183 $287 forward @7 unknown #
color-adesk-attrib $-1 -1 $-1 $-1 $108 256 #
vertex $-1 -1 $-1 $201 $288 #
straight-curve $-1 -1 $-1 -1.88870341043357115 3.100000000000000089 0.4712547998108803093 -0 -1000 -0 I I #
color-adesk-attrib $-1 -1 $-1 $-1 $109 256 #
vertex $-1 -1 $-1 $280 $289 #
straight-curve $-1 -1 $-1 -1.888703410433543395 3.100000000000000089 -0.04102021670351115035 -0 -1000 -0 I I #
rgb_color-st-attrib $-1 -1 $-1 $113 $34 0.1019607843137254888 0.1019607843137254888 0.1019607843137254888 #
integer_attrib-name_attrib-gen-attrib $-1 -1 $290 $114 $62 copy keep_kept ignore copy @17 ???????-????????3 0 #
color-adesk-attrib $-1 -1 $291 $-1 $115 256 #
face $292 -1 $-1 $179 $173 $5 $-1 $293 reversed single #
loop $-1 -1 $-1 $-1 $169 $115 #
cone-surface $-1 -1 $-1 2.081296589566406841 3.100000000000000089 -0.04102021670349706439 -0 -1 -0 0 0 -0.1999999999999998446 1 I I 0 1 0.1999999999999998446 forward I I I I #
coedge $-1 -1 $-1 $294 $204 $168 $270 forward $116 $-1 #
color-adesk-attrib $-1 -1 $-1 $-1 $118 256 #
straight-curve $-1 -1 $-1 -1.030978426947924964 3.100000000000000089 1.32897978329651667 -0 -1000 -0 I I #
coedge $-1 -1 $-1 $295 $119 $296 $297 forward $121 $-1 #
edge $298 -1 $-1 $186 0 $123 0.001213006304431632877 $120 $299 forward @7 unknown #
face $300 -1 $-1 $301 $121 $5 $-1 $302 reversed single #
point $-1 -1 $-1 -1.030978426947924964 3.100000000000000089 1.32897978329651667 #
coedge $-1 -1 $-1 $197 $296 $127 $205 forward $116 $-1 #
edge $303 -1 $-1 $210 -0 $207 0.003099999999999999891 $204 $304 forward @7 unknown #
color-adesk-attrib $-1 -1 $-1 $-1 $128 256 #
vertex $-1 -1 $-1 $128 $305 #
straight-curve $-1 -1 $-1 2.281296589566419897 0 0.4712547998108796432 707.1067811865508475 0 -707.1067811865442536 I I #
color-adesk-attrib $-1 -1 $-1 $-1 $129 256 #
vertex $-1 -1 $-1 $129 $306 #
straight-curve $-1 -1 $-1 2.281296589566419897 3.100000000000000089 0.4712547998108796432 707.1067811865508475 0 -707.1067811865442536 I I #
coedge $-1 -1 $-1 $133 $132 $307 $308 forward $41 $-1 #
coedge $-1 -1 $-1 $309 $310 $132 $214 reversed $311 $-1 #
edge $312 -1 $-1 $221 -0.0004800000000000003374 $313 2.220446049250313127e-19 $132 $314 forward @7 unknown #
coedge $-1 -1 $-1 $315 $316 $133 $216 forward $317 $-1 #
edge $318 -1 $-1 $222 -0.0004800000000000003374 $319 -0 $215 $320 forward @7 unknown #
coedge $-1 -1 $-1 $321 $134 $316 $322 reversed $219 $-1 #
coedge $-1 -1 $-1 $134 $321 $309 $323 forward $219 $-1 #
loop $-1 -1 $-1 $-1 $217 $324 #
color-adesk-attrib $-1 -1 $-1 $-1 $135 256 #
vertex $-1 -1 $-1 $135 $325 #
vertex $-1 -1 $-1 $216 $326 #
straight-curve $-1 -1 $-1 -0.8337034104335612206 1.381304655254205873e-16 0.03125479981087999487 0 0 1000 I I #
coedge $-1 -1 $-1 $327 $328 $136 $225 reversed $329 $-1 #
edge $330 -1 $-1 $230 0 $236 0.0004400000000000000699 $136 $331 forward @7 unknown #
coedge $-1 -1 $-1 $332 $137 $142 $240 reversed $228 $-1 #
coedge $-1 -1 $-1 $137 $333 $327 $334 reversed $228 $-1 #
loop $-1 -1 $-1 $-1 $227 $335 #
color-adesk-attrib $-1 -1 $-1 $-1 $138 256 #
vertex $-1 -1 $-1 $138 $336 #
straight-curve $-1 -1 $-1 1.226296589566439055 7.934741916634764028e-17 0.03125479981087999487 -1000 -1.224646799147352744e-13 -0 I I #
coedge $-1 -1 $-1 $337 $139 $328 $338 forward $234 $-1 #
coedge $-1 -1 $-1 $139 $339 $141 $239 forward $234 $-1 #
loop $-1 -1 $-1 $-1 $232 $340 #
color-adesk-attrib $-1 -1 $-1 $-1 $140 256 #
vertex $-1 -1 $-1 $225 $341 #
straight-curve $-1 -1 $-1 1.226296589566439055 7.934741916634764028e-17 0.4712547998108800318 -1000 -1.224646799147352744e-13 -0 I I #
coedge $-1 -1 $-1 $142 $141 $342 $343 reversed $143 $-1 #
edge $344 -1 $-1 $345 -0.001803314487555309148 $146 -1.381304655254205153e-19 $233 $346 forward @7 unknown #
edge $347 -1 $-1 $348 -0.001803314487555309148 $145 -1.381304655254205153e-19 $142 $349 forward @7 unknown #
face $350 -1 $-1 $351 $143 $5 $-1 $352 forward single #
point $-1 -1 $-1 1.706296589566438593 0 0.03125479981087999487 #
point $-1 -1 $-1 1.706296589566438593 0 0.4712547998108800318 #
coedge $-1 -1 $-1 $353 $148 $151 $251 forward $246 $-1 #
coedge $-1 -1 $-1 $148 $353 $156 $255 reversed $246 $-1 #
loop $-1 -1 $-1 $-1 $245 $301 #
color-adesk-attrib $-1 -1 $-1 $-1 $149 256 #
straight-curve $-1 -1 $-1 -0.04370341043356116423 6.045315944262330081e-17 0.03125479981087999487 0 0 1000 I I #
coedge $-1 -1 $-1 $354 $150 $355 $356 reversed $152 $-1 #
coedge $-1 -1 $-1 $151 $357 $358 $359 reversed $152 $-1 #
edge $360 -1 $-1 $154 6.04531594426232857e-20 $361 0.001803314487555308931 $244 $362 forward @7 unknown #
face $363 -1 $-1 $257 $152 $5 $-1 $364 reversed single #
point $-1 -1 $-1 -0.04370341043356124056 0 0.03125479981087999487 #
coedge $-1 -1 $-1 $365 $156 $366 $367 forward $158 $-1 #
edge $368 -1 $-1 $160 0 $369 0.001803314487555308931 $156 $370 forward @7 unknown #
coedge $-1 -1 $-1 $157 $371 $372 $373 forward $158 $-1 #
face $374 -1 $-1 $375 $158 $5 $-1 $376 forward single #
point $-1 -1 $-1 -0.04370341043356116423 6.045315944262330081e-17 0.4712547998108800318 #
coedge $-1 -1 $-1 $372 $355 $162 $260 forward $377 $-1 #
edge $378 -1 $-1 $265 0 $262 0.0004400000000000000699 $259 $379 forward @7 unknown #
color-adesk-attrib $-1 -1 $-1 $-1 $163 256 #
vertex $-1 -1 $-1 $260 $380 #
straight-curve $-1 -1 $-1 0.4362965895664387972 1.192362058016962479e-16 0.4712547998108800318 -1.202454901757396397e-13 1000 0 I I #
color-adesk-attrib $-1 -1 $-1 $-1 $164 256 #
vertex $-1 -1 $-1 $260 $381 #
straight-curve $-1 -1 $-1 0.4362965895664387972 1.192362058016962479e-16 0.03125479981087999487 -1.202454901757396397e-13 1000 0 I I #
color-adesk-attrib $-1 -1 $382 $-1 $165 256 #
face $383 -1 $-1 $384 $377 $5 $-1 $385 forward single #
plane-surface $-1 -1 $-1 0.4362965895664387972 1.192362058016962479e-16 0.03125479981087999487 1 1.202454901757396518e-16 0 -1.202454901757396397e-13 1000 0 forward_v I I I I #
edge $386 -1 $-1 $207 -0.0005122750165143767501 $274 -0 $197 $387 forward @7 unknown #
coedge $-1 -1 $-1 $388 $169 $172 $277 reversed $195 $-1 #
coedge $-1 -1 $-1 $169 $388 $294 $389 forward $195 $-1 #
color-adesk-attrib $-1 -1 $-1 $-1 $170 256 #
vertex $-1 -1 $-1 $270 $390 #
ellipse-curve $-1 -1 $-1 2.081296589566406841 0 -0.04102021670349706439 0 1 0 0 0 -0.1999999999999998446 1 I I #
coedge $-1 -1 $-1 $172 $171 $391 $392 reversed $173 $-1 #
edge $393 -1 $-1 $394 -0 $175 0.003099999999999999891 $172 $395 forward @7 unknown #
point $-1 -1 $-1 2.081296589566406841 0 -0.241020216703496909 #
coedge $-1 -1 $-1 $183 $391 $177 $280 forward $121 $-1 #
edge $396 -1 $-1 $282 -3.141592653589793116 $189 -1.570796326794896558 $279 $397 forward @7 unknown #
color-adesk-attrib $-1 -1 $-1 $-1 $178 256 #
vertex $-1 -1 $-1 $392 $398 #
straight-curve $-1 -1 $-1 -1.688703410433543217 3.100000000000000089 -0.2410202167035111753 -0 -1000 -0 I I #
color-adesk-attrib $-1 -1 $399 $-1 $179 256 #
cone-surface $-1 -1 $-1 -1.688703410433543217 3.100000000000000089 -0.04102021670351111565 -0 -1 -0 0 0 -0.2000000000000002054 1 I I 0 1 0.2000000000000002054 forward I I I I #
color-adesk-attrib $-1 -1 $-1 $-1 $184 256 #
straight-curve $-1 -1 $-1 -1.888703410433543617 3.100000000000000089 -0.0410202167035110879 -5.375771664312300997e-11 0 1000 I I #
point $-1 -1 $-1 -1.88870341043357115 3.100000000000000089 0.4712547998108803093 #
point $-1 -1 $-1 -1.888703410433543395 3.100000000000000089 -0.04102021670351115035 #
rgb_color-st-attrib $-1 -1 $-1 $192 $62 0.1019607843137254888 0.1019607843137254888 0.1019607843137254888 #
integer_attrib-name_attrib-gen-attrib $-1 -1 $400 $193 $115 copy keep_kept ignore copy @17 ???????-????????3 0 #
color-adesk-attrib $-1 -1 $401 $-1 $194 256 #
plane-surface $-1 -1 $-1 -1.688703410433543217 3.100000000000000089 -0.2410202167035111753 -3.731438511405731218e-15 0 1 1000 0 3.731438511405731382e-12 forward_v I I I I #
coedge $-1 -1 $-1 $296 $197 $272 $389 reversed $116 $-1 #
coedge $-1 -1 $-1 $391 $200 $388 $402 forward $121 $-1 #
coedge $-1 -1 $-1 $204 $294 $200 $297 reversed $116 $-1 #
edge $403 -1 $-1 $210 -0.0005122750165143767501 $404 -0 $200 $405 forward @7 unknown #
color-adesk-attrib $-1 -1 $-1 $-1 $201 256 #
straight-curve $-1 -1 $-1 -1.88870341043357115 3.100000000000000089 0.4712547998108803093 707.1067811865514159 0 707.1067811865435715 I I #
color-adesk-attrib $-1 -1 $406 $-1 $202 256 #
face $407 -1 $-1 $165 $246 $5 $-1 $408 forward single #
plane-surface $-1 -1 $-1 2.081296589566406841 3.100000000000000089 -0.04102021670349706439 0 -1 0 0 0 -1000 forward_v I I I I #
color-adesk-attrib $-1 -1 $-1 $-1 $205 256 #
straight-curve $-1 -1 $-1 2.281296589566419897 3.100000000000000089 0.4712547998108796432 -0 -1000 -0 I I #
point $-1 -1 $-1 2.281296589566419897 0 0.4712547998108796432 #
point $-1 -1 $-1 2.281296589566419897 3.100000000000000089 0.4712547998108796432 #
coedge $-1 -1 $-1 $409 $410 $212 $308 reversed $411 $-1 #
edge $412 -1 $-1 $313 0 $319 0.0004400000000000000699 $212 $413 forward @7 unknown #
coedge $-1 -1 $-1 $414 $213 $218 $323 reversed $311 $-1 #
coedge $-1 -1 $-1 $213 $415 $409 $416 reversed $311 $-1 #
loop $-1 -1 $-1 $-1 $310 $417 #
color-adesk-attrib $-1 -1 $-1 $-1 $214 256 #
vertex $-1 -1 $-1 $214 $418 #
straight-curve $-1 -1 $-1 -1.313703410433561425 7.934741916634764028e-17 0.03125479981087999487 -1000 -1.224646799147352996e-13 -0 I I #
coedge $-1 -1 $-1 $419 $215 $410 $420 forward $317 $-1 #
coedge $-1 -1 $-1 $215 $421 $217 $322 forward $317 $-1 #
loop $-1 -1 $-1 $-1 $315 $422 #
color-adesk-attrib $-1 -1 $-1 $-1 $216 256 #
vertex $-1 -1 $-1 $308 $423 #
straight-curve $-1 -1 $-1 -1.313703410433561425 7.934741916634764028e-17 0.4712547998108800318 -1000 -1.224646799147352996e-13 -0 I I #
coedge $-1 -1 $-1 $218 $217 $424 $425 reversed $219 $-1 #
edge $426 -1 $-1 $427 -0.001803314487555309148 $222 -1.381304655254206116e-19 $316 $428 forward @7 unknown #
edge $429 -1 $-1 $430 -0.001803314487555309148 $221 -1.381304655254206116e-19 $218 $431 forward @7 unknown #
face $432 -1 $-1 $433 $219 $5 $-1 $434 forward single #
point $-1 -1 $-1 -0.8337034104335611095 0 0.03125479981087999487 #
point $-1 -1 $-1 -0.8337034104335611095 0 0.4712547998108800318 #
coedge $-1 -1 $-1 $435 $224 $227 $334 forward $329 $-1 #
coedge $-1 -1 $-1 $224 $435 $232 $338 reversed $329 $-1 #
loop $-1 -1 $-1 $-1 $328 $375 #
color-adesk-attrib $-1 -1 $-1 $-1 $225 256 #
straight-curve $-1 -1 $-1 1.226296589566439055 7.934741916634764028e-17 0.03125479981087999487 0 0 1000 I I #
coedge $-1 -1 $-1 $436 $226 $437 $438 reversed $228 $-1 #
coedge $-1 -1 $-1 $227 $439 $440 $441 reversed $228 $-1 #
edge $442 -1 $-1 $230 7.934741916634763566e-20 $443 0.001803314487555308931 $327 $444 forward @7 unknown #
face $445 -1 $-1 $340 $228 $5 $-1 $446 reversed single #
point $-1 -1 $-1 1.226296589566439055 0 0.03125479981087999487 #
coedge $-1 -1 $-1 $447 $232 $448 $449 forward $234 $-1 #
edge $450 -1 $-1 $236 0 $451 0.001803314487555308931 $232 $452 forward @7 unknown #
coedge $-1 -1 $-1 $233 $453 $454 $455 forward $234 $-1 #
face $456 -1 $-1 $457 $234 $5 $-1 $458 forward single #
point $-1 -1 $-1 1.226296589566439055 7.934741916634764028e-17 0.4712547998108800318 #
coedge $-1 -1 $-1 $454 $437 $238 $343 forward $459 $-1 #
edge $460 -1 $-1 $348 0 $345 0.0004400000000000000699 $342 $461 forward @7 unknown #
color-adesk-attrib $-1 -1 $-1 $-1 $239 256 #
vertex $-1 -1 $-1 $343 $462 #
straight-curve $-1 -1 $-1 1.706296589566438593 1.381304655254205134e-16 0.4712547998108800318 -1.202454901757396397e-13 1000 0 I I #
color-adesk-attrib $-1 -1 $-1 $-1 $240 256 #
vertex $-1 -1 $-1 $343 $463 #
straight-curve $-1 -1 $-1 1.706296589566438593 1.381304655254205134e-16 0.03125479981087999487 -1.202454901757396397e-13 1000 0 I I #
color-adesk-attrib $-1 -1 $464 $-1 $241 256 #
face $465 -1 $-1 $466 $459 $5 $-1 $467 forward single #
plane-surface $-1 -1 $-1 1.706296589566438593 1.381304655254205134e-16 0.03125479981087999487 1 1.202454901757396518e-16 0 -1.202454901757396397e-13 1000 0 forward_v I I I I #
coedge $-1 -1 $-1 $245 $244 $468 $469 forward $246 $-1 #
coedge $-1 -1 $-1 $470 $249 $471 $472 reversed $152 $-1 #
coedge $-1 -1 $-1 $259 $473 $249 $356 forward $377 $-1 #
edge $474 -1 $-1 $475 -5.999999999999999474e-05 $265 -0 $355 $476 forward @7 unknown #
coedge $-1 -1 $-1 $250 $477 $478 $479 reversed $152 $-1 #
coedge $-1 -1 $-1 $480 $468 $250 $359 forward $481 $-1 #
edge $482 -1 $-1 $361 -5.999999999999999474e-05 $483 -0 $358 $484 forward @7 unknown #
color-adesk-attrib $-1 -1 $-1 $-1 $251 256 #
vertex $-1 -1 $-1 $469 $485 #
straight-curve $-1 -1 $-1 -0.04370341043356116423 6.045315944262330081e-17 0.03125479981087999487 1.202454901757396397e-13 -1000 0 I I #
color-adesk-attrib $-1 -1 $486 $-1 $252 256 #
plane-surface $-1 -1 $-1 0 0 0.03125479981087999487 0 0 1 1000 0 0 forward_v I I I I #
coedge $-1 -1 $-1 $487 $254 $488 $489 forward $158 $-1 #
coedge $-1 -1 $-1 $468 $480 $254 $367 reversed $481 $-1 #
edge $490 -1 $-1 $369 -5.999999999999999474e-05 $491 -0 $254 $492 forward @7 unknown #
color-adesk-attrib $-1 -1 $-1 $-1 $255 256 #
vertex $-1 -1 $-1 $469 $493 #
straight-curve $-1 -1 $-1 -0.04370341043356116423 6.045315944262330081e-17 0.4712547998108800318 1.202454901757396397e-13 -1000 0 I I #
coedge $-1 -1 $-1 $256 $494 $495 $496 forward $158 $-1 #
coedge $-1 -1 $-1 $473 $259 $256 $373 reversed $377 $-1 #
edge $497 -1 $-1 $498 -5.999999999999999474e-05 $262 -0 $256 $499 forward @7 unknown #
color-adesk-attrib $-1 -1 $500 $-1 $257 256 #
face $501 -1 $-1 $241 $329 $5 $-1 $502 forward single #
plane-surface $-1 -1 $-1 0 0 0.4712547998108800318 0 0 1 1000 0 0 forward_v I I I I #
loop $-1 -1 $-1 $-1 $372 $268 #
color-adesk-attrib $-1 -1 $-1 $-1 $260 256 #
straight-curve $-1 -1 $-1 0.4362965895664389637 -1.803314487555308876 0.03125479981087999487 0 0 1000 I I #
point $-1 -1 $-1 0.4362965895664389637 -1.803314487555308876 0.4712547998108800318 #
point $-1 -1 $-1 0.4362965895664389637 -1.803314487555308876 0.03125479981087999487 #
integer_attrib-name_attrib-gen-attrib $-1 -1 $503 $267 $165 copy keep_kept ignore copy @17 ???????-????????3 0 #
color-adesk-attrib $-1 -1 $504 $-1 $268 256 #
face $505 -1 $-1 $506 $507 $5 $-1 $508 forward single #
plane-surface $-1 -1 $-1 0.4362965895664389637 -1.803314487555308876 0.03125479981087999487 0 1 0 0 0 1000 forward_v I I I I #
color-adesk-attrib $-1 -1 $-1 $-1 $270 256 #
straight-curve $-1 -1 $-1 2.281296589566406574 0 -0.04102021670349709215 -2.624392466042300581e-11 -0 -1000 I I #
coedge $-1 -1 $-1 $272 $271 $295 $402 reversed $195 $-1 #
edge $509 -1 $-1 $404 -0 $274 0.003099999999999999891 $272 $510 forward @7 unknown #
point $-1 -1 $-1 2.281296589566406574 0 -0.04102021670349709215 #
coedge $-1 -1 $-1 $279 $295 $276 $392 forward $121 $-1 #
edge $511 -1 $-1 $394 -0.00376999999999995004 $282 -0 $391 $512 forward @7 unknown #
color-adesk-attrib $-1 -1 $-1 $-1 $277 256 #
vertex $-1 -1 $-1 $402 $513 #
straight-curve $-1 -1 $-1 2.081296589566406841 3.100000000000000089 -0.241020216703496909 -0 -1000 -0 I I #
color-adesk-attrib $-1 -1 $-1 $-1 $280 256 #
ellipse-curve $-1 -1 $-1 -1.688703410433543217 3.100000000000000089 -0.04102021670351111565 0 1 0 0 0 0.2000000000000001499 1 I I #
point $-1 -1 $-1 -1.688703410433543217 3.100000000000000089 -0.2410202167035111753 #
integer_attrib-name_attrib-gen-attrib $-1 -1 $514 $284 $179 copy keep_kept ignore copy @17 ???????-????????3 0 #
rgb_color-st-attrib $-1 -1 $-1 $291 $115 0.1019607843137254888 0.1019607843137254888 0.1019607843137254888 #
integer_attrib-name_attrib-gen-attrib $-1 -1 $515 $292 $194 copy keep_kept ignore copy @17 ???????-????????3 0 #
edge $516 -1 $-1 $404 -1.570796326794896558 $394 0 $295 $517 forward @7 unknown #
color-adesk-attrib $-1 -1 $-1 $-1 $297 256 #
vertex $-1 -1 $-1 $297 $518 #
straight-curve $-1 -1 $-1 2.281296589566406574 3.100000000000000089 -0.04102021670349709215 -2.624392466042300581e-11 -0 -1000 I I #
integer_attrib-name_attrib-gen-attrib $-1 -1 $519 $300 $202 copy keep_kept ignore copy @17 ???????-????????3 0 #
color-adesk-attrib $-1 -1 $520 $-1 $301 256 #
plane-surface $-1 -1 $-1 -0.04370341043356116423 6.045315944262330081e-17 0.03125479981087999487 -1 -1.202454901757396518e-16 0 1.202454901757396397e-13 -1000 0 forward_v I I I I #
coedge $-1 -1 $-1 $521 $307 $310 $416 forward $411 $-1 #
coedge $-1 -1 $-1 $307 $521 $315 $420 reversed $411 $-1 #
loop $-1 -1 $-1 $-1 $410 $457 #
color-adesk-attrib $-1 -1 $-1 $-1 $308 256 #
straight-curve $-1 -1 $-1 -1.313703410433561425 7.934741916634764028e-17 0.03125479981087999487 0 0 1000 I I #
coedge $-1 -1 $-1 $522 $309 $523 $524 reversed $311 $-1 #
coedge $-1 -1 $-1 $310 $525 $526 $527 reversed $311 $-1 #
edge $528 -1 $-1 $313 7.934741916634761159e-20 $529 0.001803314487555308931 $409 $530 forward @7 unknown #
face $531 -1 $-1 $422 $311 $5 $-1 $532 reversed single #
point $-1 -1 $-1 -1.313703410433561647 0 0.03125479981087999487 #
coedge $-1 -1 $-1 $533 $315 $534 $535 forward $317 $-1 #
edge $536 -1 $-1 $319 0 $537 0.001803314487555308931 $315 $538 forward @7 unknown #
coedge $-1 -1 $-1 $316 $539 $540 $541 forward $317 $-1 #
face $542 -1 $-1 $-1 $317 $5 $-1 $543 forward single #
point $-1 -1 $-1 -1.313703410433561425 7.934741916634764028e-17 0.4712547998108800318 #
coedge $-1 -1 $-1 $540 $523 $321 $425 forward $544 $-1 #
edge $545 -1 $-1 $430 0 $427 0.0004400000000000000699 $424 $546 forward @7 unknown #
color-adesk-attrib $-1 -1 $-1 $-1 $322 256 #
vertex $-1 -1 $-1 $425 $547 #
straight-curve $-1 -1 $-1 -0.8337034104335612206 1.381304655254205873e-16 0.4712547998108800318 -1.202454901757396397e-13 1000 0 I I #
color-adesk-attrib $-1 -1 $-1 $-1 $323 256 #
vertex $-1 -1 $-1 $425 $548 #
straight-curve $-1 -1 $-1 -0.8337034104335612206 1.381304655254205873e-16 0.03125479981087999487 -1.202454901757396397e-13 1000 0 I I #
color-adesk-attrib $-1 -1 $549 $-1 $324 256 #
face $550 -1 $-1 $551 $544 $5 $-1 $552 forward single #
plane-surface $-1 -1 $-1 -0.8337034104335612206 1.381304655254205873e-16 0.03125479981087999487 1 1.202454901757396518e-16 0 -1.202454901757396397e-13 1000 0 forward_v I I I I #
coedge $-1 -1 $-1 $328 $327 $553 $554 forward $329 $-1 #
coedge $-1 -1 $-1 $555 $332 $556 $557 reversed $228 $-1 #
coedge $-1 -1 $-1 $342 $558 $332 $438 forward $459 $-1 #
edge $559 -1 $-1 $560 -5.999999999999983211e-05 $348 -0 $437 $561 forward @7 unknown #
coedge $-1 -1 $-1 $333 $562 $563 $564 reversed $228 $-1 #
coedge $-1 -1 $-1 $565 $553 $333 $441 forward $566 $-1 #
edge $567 -1 $-1 $443 -6.000000000000005573e-05 $568 0 $440 $569 forward @7 unknown #
color-adesk-attrib $-1 -1 $-1 $-1 $334 256 #
vertex $-1 -1 $-1 $554 $570 #
straight-curve $-1 -1 $-1 1.226296589566439055 7.934741916634764028e-17 0.03125479981087999487 1.202454901757396397e-13 -1000 0 I I #
color-adesk-attrib $-1 -1 $571 $-1 $335 256 #
plane-surface $-1 -1 $-1 0 0 0.03125479981087999487 0 0 1 1000 0 0 forward_v I I I I #
coedge $-1 -1 $-1 $572 $337 $573 $574 forward $234 $-1 #
coedge $-1 -1 $-1 $553 $565 $337 $449 reversed $566 $-1 #
edge $575 -1 $-1 $451 -6.000000000000005573e-05 $576 0 $337 $577 forward @7 unknown #
color-adesk-attrib $-1 -1 $-1 $-1 $338 256 #
vertex $-1 -1 $-1 $554 $578 #
straight-curve $-1 -1 $-1 1.226296589566439055 7.934741916634764028e-17 0.4712547998108800318 1.202454901757396397e-13 -1000 0 I I #
coedge $-1 -1 $-1 $339 $579 $580 $581 forward $234 $-1 #
coedge $-1 -1 $-1 $558 $342 $339 $455 reversed $459 $-1 #
edge $582 -1 $-1 $583 -5.999999999999983211e-05 $345 -0 $339 $584 forward @7 unknown #
color-adesk-attrib $-1 -1 $585 $-1 $340 256 #
face $586 -1 $-1 $324 $411 $5 $-1 $587 forward single #
plane-surface $-1 -1 $-1 0 0 0.4712547998108800318 0 0 1 1000 0 0 forward_v I I I I #
loop $-1 -1 $-1 $-1 $454 $351 #
color-adesk-attrib $-1 -1 $-1 $-1 $343 256 #
straight-curve $-1 -1 $-1 1.706296589566438815 -1.803314487555308876 0.03125479981087999487 0 0 1000 I I #
point $-1 -1 $-1 1.706296589566438815 -1.803314487555308876 0.4712547998108800318 #
point $-1 -1 $-1 1.706296589566438815 -1.803314487555308876 0.03125479981087999487 #
integer_attrib-name_attrib-gen-attrib $-1 -1 $588 $350 $241 copy keep_kept ignore copy @17 ???????-????????3 0 #
color-adesk-attrib $-1 -1 $589 $-1 $351 256 #
face $590 -1 $-1 $591 $592 $5 $-1 $593 forward single #
plane-surface $-1 -1 $-1 1.706296589566438815 -1.803314487555308876 0.03125479981087999487 -3.614007241618351532e-15 1 0 -1000 -3.614007241618351614e-12 0 forward_v I I I I #
coedge $-1 -1 $-1 $358 $366 $353 $469 reversed $481 $-1 #
edge $594 -1 $-1 $361 0 $369 0.0004400000000000000699 $353 $595 forward @7 unknown #
coedge $-1 -1 $-1 $596 $354 $597 $598 reversed $152 $-1 #
coedge $-1 -1 $-1 $599 $600 $354 $472 forward $507 $-1 #
edge $601 -1 $-1 $602 -0.0003566855124446912588 $475 0 $471 $603 forward @7 unknown #
coedge $-1 -1 $-1 $355 $372 $599 $604 reversed $377 $-1 #
color-adesk-attrib $-1 -1 $-1 $-1 $356 256 #
vertex $-1 -1 $-1 $604 $605 #
straight-curve $-1 -1 $-1 0.4362965895664389637 -1.803314487555308876 0.03125479981087999487 -1000 -0 -0 I I #
coedge $-1 -1 $-1 $357 $606 $607 $608 reversed $152 $-1 #
coedge $-1 -1 $-1 $609 $610 $357 $479 forward $611 $-1 #
edge $612 -1 $-1 $483 0 $613 0.0003566855124446912588 $478 $614 forward @7 unknown #
coedge $-1 -1 $-1 $366 $358 $610 $615 forward $481 $-1 #
loop $-1 -1 $-1 $-1 $366 $616 #
color-adesk-attrib $-1 -1 $-1 $-1 $359 256 #
vertex $-1 -1 $-1 $615 $617 #
straight-curve $-1 -1 $-1 -0.1037034104335609469 -1.803314487555308876 0.03125479981087999487 -1000 -0 -0 I I #
point $-1 -1 $-1 -0.04370341043356094912 -1.803314487555308876 0.03125479981087999487 #
integer_attrib-name_attrib-gen-attrib $-1 -1 $618 $363 $252 copy keep_kept ignore copy @17 ???????-????????3 0 #
coedge $-1 -1 $-1 $619 $365 $620 $621 forward $158 $-1 #
coedge $-1 -1 $-1 $610 $609 $365 $489 reversed $611 $-1 #
edge $622 -1 $-1 $491 0 $623 0.0003566855124446912588 $365 $624 forward @7 unknown #
color-adesk-attrib $-1 -1 $-1 $-1 $367 256 #
vertex $-1 -1 $-1 $615 $625 #
straight-curve $-1 -1 $-1 -0.1037034104335609469 -1.803314487555308876 0.4712547998108800318 -1000 -0 -0 I I #
point $-1 -1 $-1 -0.04370341043356094912 -1.803314487555308876 0.4712547998108800318 #
coedge $-1 -1 $-1 $371 $626 $627 $628 forward $158 $-1 #
coedge $-1 -1 $-1 $600 $599 $371 $496 reversed $507 $-1 #
edge $629 -1 $-1 $630 -0.0003566855124446912588 $498 0 $371 $631 forward @7 unknown #
color-adesk-attrib $-1 -1 $-1 $-1 $373 256 #
vertex $-1 -1 $-1 $604 $632 #
straight-curve $-1 -1 $-1 0.4362965895664389637 -1.803314487555308876 0.4712547998108800318 -1000 -0 -0 I I #
integer_attrib-name_attrib-gen-attrib $-1 -1 $633 $374 $257 copy keep_kept ignore copy @17 ???????-????????3 0 #
color-adesk-attrib $-1 -1 $634 $-1 $375 256 #
plane-surface $-1 -1 $-1 1.226296589566439055 7.934741916634764028e-17 0.03125479981087999487 -1 -1.202454901757396518e-16 0 1.202454901757396397e-13 -1000 0 forward_v I I I I #
rgb_color-st-attrib $-1 -1 $-1 $382 $165 0.6901960784313725394 0.6117647058823529882 0.5294117647058823595 #
integer_attrib-name_attrib-gen-attrib $-1 -1 $635 $383 $268 copy keep_kept ignore copy @17 ???????-????????3 0 #
color-adesk-attrib $-1 -1 $636 $-1 $384 256 #
face $637 -1 $-1 $638 $639 $5 $-1 $640 forward single #
loop $-1 -1 $-1 $-1 $495 $384 #
plane-surface $-1 -1 $-1 0.4962965895664389615 -1.803314487555308876 0.03125479981087999487 1 3.03965856379890034e-16 0 -3.039658563798900222e-13 1000 0 forward_v I I I I #
color-adesk-attrib $-1 -1 $-1 $-1 $389 256 #
straight-curve $-1 -1 $-1 2.281296589566406574 3.100000000000000089 -0.04102021670349709215 -0 -1000 -0 I I #
color-adesk-attrib $-1 -1 $-1 $-1 $392 256 #
straight-curve $-1 -1 $-1 -1.688703410433543217 3.100000000000000089 -0.2410202167035111753 -1000 -0 -3.731438511405731382e-12 I I #
point $-1 -1 $-1 2.081296589566406841 3.100000000000000089 -0.241020216703496909 #
rgb_color-st-attrib $-1 -1 $-1 $399 $179 0.1019607843137254888 0.1019607843137254888 0.1019607843137254888 #
rgb_color-st-attrib $-1 -1 $-1 $401 $194 0.1019607843137254888 0.1019607843137254888 0.1019607843137254888 #
color-adesk-attrib $-1 -1 $-1 $-1 $402 256 #
ellipse-curve $-1 -1 $-1 2.081296589566406841 3.100000000000000089 -0.04102021670349706439 0 1 0 0 0 -0.1999999999999998446 1 I I #
point $-1 -1 $-1 2.281296589566406574 3.100000000000000089 -0.04102021670349709215 #
rgb_color-st-attrib $-1 -1 $-1 $406 $202 0.1019607843137254888 0.1019607843137254888 0.1019607843137254888 #
integer_attrib-name_attrib-gen-attrib $-1 -1 $641 $407 $301 copy keep_kept ignore copy @17 ???????-????????3 0 #
coedge $-1 -1 $-1 $410 $409 $642 $643 forward $411 $-1 #
coedge $-1 -1 $-1 $644 $414 $645 $646 reversed $311 $-1 #
coedge $-1 -1 $-1 $424 $647 $414 $524 forward $544 $-1 #
edge $648 -1 $-1 $649 -5.999999999999994053e-05 $430 -0 $523 $650 forward @7 unknown #
coedge $-1 -1 $-1 $415 $651 $652 $653 reversed $311 $-1 #
coedge $-1 -1 $-1 $654 $642 $415 $527 forward $655 $-1 #
edge $656 -1 $-1 $529 -5.999999999999983211e-05 $657 0 $526 $658 forward @7 unknown #
color-adesk-attrib $-1 -1 $-1 $-1 $416 256 #
vertex $-1 -1 $-1 $643 $659 #
straight-curve $-1 -1 $-1 -1.313703410433561425 7.934741916634764028e-17 0.03125479981087999487 1.202454901757396397e-13 -1000 0 I I #
color-adesk-attrib $-1 -1 $660 $-1 $417 256 #
plane-surface $-1 -1 $-1 0 0 0.03125479981087999487 0 0 1 1000 0 0 forward_v I I I I #
coedge $-1 -1 $-1 $661 $419 $662 $663 forward $317 $-1 #
coedge $-1 -1 $-1 $642 $654 $419 $535 reversed $655 $-1 #
edge $664 -1 $-1 $537 -5.999999999999983211e-05 $665 0 $419 $666 forward @7 unknown #
color-adesk-attrib $-1 -1 $-1 $-1 $420 256 #
vertex $-1 -1 $-1 $643 $667 #
straight-curve $-1 -1 $-1 -1.313703410433561425 7.934741916634764028e-17 0.4712547998108800318 1.202454901757396397e-13 -1000 0 I I #
coedge $-1 -1 $-1 $421 $668 $669 $670 forward $317 $-1 #
coedge $-1 -1 $-1 $647 $424 $421 $541 reversed $544 $-1 #
edge $671 -1 $-1 $672 -5.999999999999994053e-05 $427 -0 $421 $673 forward @7 unknown #
color-adesk-attrib $-1 -1 $674 $-1 $422 256 #
plane-surface $-1 -1 $-1 0 0 0.4712547998108800318 0 0 1 1000 0 0 forward_v I I I I #
loop $-1 -1 $-1 $-1 $540 $433 #
color-adesk-attrib $-1 -1 $-1 $-1 $425 256 #
straight-curve $-1 -1 $-1 -0.8337034104335609985 -1.803314487555308876 0.03125479981087999487 0 0 1000 I I #
point $-1 -1 $-1 -0.8337034104335609985 -1.803314487555308876 0.4712547998108800318 #
point $-1 -1 $-1 -0.8337034104335609985 -1.803314487555308876 0.03125479981087999487 #
integer_attrib-name_attrib-gen-attrib $-1 -1 $675 $432 $324 copy keep_kept ignore copy @17 ???????-????????3 0 #
color-adesk-attrib $-1 -1 $676 $-1 $433 256 #
face $677 -1 $-1 $678 $679 $5 $-1 $680 forward single #
plane-surface $-1 -1 $-1 -0.8337034104335609985 -1.803314487555308876 0.03125479981087999487 -3.614007241618351532e-15 1 0 -1000 -3.614007241618351614e-12 0 forward_v I I I I #
coedge $-1 -1 $-1 $440 $448 $435 $554 reversed $566 $-1 #
edge $681 -1 $-1 $443 0 $451 0.0004400000000000000699 $435 $682 forward @7 unknown #
coedge $-1 -1 $-1 $683 $436 $684 $685 reversed $228 $-1 #
coedge $-1 -1 $-1 $686 $687 $436 $557 forward $592 $-1 #
edge $688 -1 $-1 $689 -0.0003566855124446914756 $560 0 $556 $690 forward @7 unknown #
coedge $-1 -1 $-1 $437 $454 $686 $691 reversed $459 $-1 #
color-adesk-attrib $-1 -1 $-1 $-1 $438 256 #
vertex $-1 -1 $-1 $691 $692 #
straight-curve $-1 -1 $-1 1.706296589566438815 -1.803314487555308876 0.03125479981087999487 -1000 -3.614007241618351614e-12 -0 I I #
coedge $-1 -1 $-1 $439 $693 $694 $695 reversed $228 $-1 #
coedge $-1 -1 $-1 $696 $697 $439 $564 forward $698 $-1 #
edge $699 -1 $-1 $568 0 $700 0.0003566855124446914756 $563 $701 forward @7 unknown #
coedge $-1 -1 $-1 $448 $440 $697 $702 forward $566 $-1 #
loop $-1 -1 $-1 $-1 $448 $703 #
color-adesk-attrib $-1 -1 $-1 $-1 $441 256 #
vertex $-1 -1 $-1 $702 $704 #
straight-curve $-1 -1 $-1 1.166296589566439224 -1.803314487555308654 0.03125479981087999487 -1000 3.614007241618351614e-12 0 I I #
point $-1 -1 $-1 1.226296589566439277 -1.803314487555308876 0.03125479981087999487 #
integer_attrib-name_attrib-gen-attrib $-1 -1 $705 $445 $335 copy keep_kept ignore copy @17 ???????-????????3 0 #
coedge $-1 -1 $-1 $706 $447 $707 $708 forward $234 $-1 #
coedge $-1 -1 $-1 $697 $696 $447 $574 reversed $698 $-1 #
edge $709 -1 $-1 $576 0 $710 0.0003566855124446914756 $447 $711 forward @7 unknown #
color-adesk-attrib $-1 -1 $-1 $-1 $449 256 #
vertex $-1 -1 $-1 $702 $712 #
straight-curve $-1 -1 $-1 1.166296589566439224 -1.803314487555308654 0.4712547998108800318 -1000 3.614007241618351614e-12 0 I I #
point $-1 -1 $-1 1.226296589566439277 -1.803314487555308876 0.4712547998108800318 #
coedge $-1 -1 $-1 $453 $713 $714 $715 forward $234 $-1 #
coedge $-1 -1 $-1 $687 $686 $453 $581 reversed $592 $-1 #
edge $716 -1 $-1 $717 -0.0003566855124446914756 $583 0 $453 $718 forward @7 unknown #
color-adesk-attrib $-1 -1 $-1 $-1 $455 256 #
vertex $-1 -1 $-1 $691 $719 #
straight-curve $-1 -1 $-1 1.706296589566438815 -1.803314487555308876 0.4712547998108800318 -1000 -3.614007241618351614e-12 -0 I I #
integer_attrib-name_attrib-gen-attrib $-1 -1 $720 $456 $340 copy keep_kept ignore copy @17 ???????-????????3 0 #
color-adesk-attrib $-1 -1 $721 $-1 $457 256 #
plane-surface $-1 -1 $-1 -1.313703410433561425 7.934741916634764028e-17 0.03125479981087999487 -1 -1.202454901757396518e-16 0 1.202454901757396397e-13 -1000 0 forward_v I I I I #
rgb_color-st-attrib $-1 -1 $-1 $464 $241 0.6901960784313725394 0.6117647058823529882 0.5294117647058823595 #
integer_attrib-name_attrib-gen-attrib $-1 -1 $722 $465 $351 copy keep_kept ignore copy @17 ???????-????????3 0 #
color-adesk-attrib $-1 -1 $723 $-1 $466 256 #
face $724 -1 $-1 $725 $726 $5 $-1 $727 forward single #
loop $-1 -1 $-1 $-1 $580 $466 #
plane-surface $-1 -1 $-1 1.766296589566438646 -1.803314487555308654 0.03125479981087999487 1 0 0 0 0 -1000 forward_v I I I I #
color-adesk-attrib $-1 -1 $-1 $-1 $469 256 #
straight-curve $-1 -1 $-1 -0.04370341043356094912 -1.803314487555308876 0.03125479981087999487 0 0 1000 I I #
coedge $-1 -1 $-1 $728 $470 $729 $730 reversed $152 $-1 #
coedge $-1 -1 $-1 $731 $732 $470 $598 forward $639 $-1 #
edge $733 -1 $-1 $734 0 $602 6.000000000000005573e-05 $597 $735 forward @7 unknown #
coedge $-1 -1 $-1 $495 $471 $473 $604 forward $507 $-1 #
coedge $-1 -1 $-1 $471 $495 $731 $736 reversed $507 $-1 #
color-adesk-attrib $-1 -1 $-1 $-1 $472 256 #
vertex $-1 -1 $-1 $736 $737 #
straight-curve $-1 -1 $-1 0.4962965895664389615 -1.803314487555308876 0.03125479981087999487 -3.039658563798900222e-13 1000 0 I I #
edge $738 -1 $-1 $475 0 $498 0.0004400000000000000699 $599 $739 forward @7 unknown #
point $-1 -1 $-1 0.4962965895664389615 -1.803314487555308876 0.03125479981087999487 #
coedge $-1 -1 $-1 $477 $728 $740 $741 reversed $152 $-1 #
coedge $-1 -1 $-1 $742 $743 $477 $608 forward $744 $-1 #
edge $745 -1 $-1 $613 0 $746 5.999999999999999474e-05 $607 $747 forward @7 unknown #
coedge $-1 -1 $-1 $488 $478 $743 $748 forward $611 $-1 #
coedge $-1 -1 $-1 $478 $488 $480 $615 reversed $611 $-1 #
loop $-1 -1 $-1 $-1 $488 $749 #
color-adesk-attrib $-1 -1 $-1 $-1 $479 256 #
vertex $-1 -1 $-1 $748 $750 #
straight-curve $-1 -1 $-1 -0.1037034104335609469 -1.803314487555308876 0.03125479981087999487 1.519829281899450111e-13 -1000 0 I I #
edge $751 -1 $-1 $483 0 $491 0.0004400000000000000699 $480 $752 forward @7 unknown #
face $753 -1 $-1 $252 $481 $5 $-1 $754 forward single #
point $-1 -1 $-1 -0.1037034104335609469 -1.803314487555308876 0.03125479981087999487 #
rgb_color-st-attrib $-1 -1 $-1 $486 $252 0.6901960784313725394 0.6117647058823529882 0.5294117647058823595 #
coedge $-1 -1 $-1 $755 $487 $756 $757 forward $158 $-1 #
coedge $-1 -1 $-1 $743 $742 $487 $621 reversed $744 $-1 #
edge $758 -1 $-1 $623 0 $759 5.999999999999999474e-05 $487 $760 forward @7 unknown #
color-adesk-attrib $-1 -1 $-1 $-1 $489 256 #
vertex $-1 -1 $-1 $748 $761 #
straight-curve $-1 -1 $-1 -0.1037034104335609469 -1.803314487555308876 0.4712547998108800318 1.519829281899450111e-13 -1000 0 I I #
point $-1 -1 $-1 -0.1037034104335609469 -1.803314487555308876 0.4712547998108800318 #
coedge $-1 -1 $-1 $494 $755 $762 $763 forward $158 $-1 #
coedge $-1 -1 $-1 $732 $731 $494 $628 reversed $639 $-1 #
edge $764 -1 $-1 $765 0 $630 6.000000000000005573e-05 $494 $766 forward @7 unknown #
color-adesk-attrib $-1 -1 $-1 $-1 $496 256 #
vertex $-1 -1 $-1 $736 $767 #
straight-curve $-1 -1 $-1 0.4962965895664389615 -1.803314487555308876 0.4712547998108800318 -3.039658563798900222e-13 1000 0 I I #
point $-1 -1 $-1 0.4962965895664389615 -1.803314487555308876 0.4712547998108800318 #
rgb_color-st-attrib $-1 -1 $-1 $500 $257 0.6901960784313725394 0.6117647058823529882 0.5294117647058823595 #
integer_attrib-name_attrib-gen-attrib $-1 -1 $768 $501 $375 copy keep_kept ignore copy @17 ???????-????????3 0 #
rgb_color-st-attrib $-1 -1 $-1 $504 $268 0.6901960784313725394 0.6117647058823529882 0.5294117647058823595 #
integer_attrib-name_attrib-gen-attrib $-1 -1 $769 $505 $384 copy keep_kept ignore copy @17 ???????-????????3 0 #
color-adesk-attrib $-1 -1 $770 $-1 $506 256 #
face $771 -1 $-1 $772 $773 $5 $-1 $774 forward single #
loop $-1 -1 $-1 $-1 $627 $506 #
plane-surface $-1 -1 $-1 0.4362965895664390192 -2.160000000000000142 0.03125479981087999487 0 -1 0 0 0 -1000 forward_v I I I I #
rgb_color-st-attrib $-1 -1 $-1 $520 $301 0.6901960784313725394 0.6117647058823529882 0.5294117647058823595 #
coedge $-1 -1 $-1 $526 $534 $521 $643 reversed $655 $-1 #
edge $775 -1 $-1 $529 0 $537 0.0004400000000000000699 $521 $776 forward @7 unknown #
coedge $-1 -1 $-1 $777 $522 $778 $779 reversed $311 $-1 #
coedge $-1 -1 $-1 $780 $781 $522 $646 forward $679 $-1 #
edge $782 -1 $-1 $783 -0.0003566855124446914756 $649 0 $645 $784 forward @7 unknown #
coedge $-1 -1 $-1 $523 $540 $780 $785 reversed $544 $-1 #
color-adesk-attrib $-1 -1 $-1 $-1 $524 256 #
vertex $-1 -1 $-1 $785 $786 #
straight-curve $-1 -1 $-1 -0.8337034104335609985 -1.803314487555308876 0.03125479981087999487 -1000 -3.614007241618351614e-12 -0 I I #
coedge $-1 -1 $-1 $525 $787 $788 $789 reversed $311 $-1 #
coedge $-1 -1 $-1 $790 $791 $525 $653 forward $792 $-1 #
edge $793 -1 $-1 $657 0 $794 0.0003566855124446914756 $652 $795 forward @7 unknown #
coedge $-1 -1 $-1 $534 $526 $791 $796 forward $655 $-1 #
loop $-1 -1 $-1 $-1 $534 $797 #
color-adesk-attrib $-1 -1 $-1 $-1 $527 256 #
vertex $-1 -1 $-1 $796 $798 #
straight-curve $-1 -1 $-1 -1.373703410433561034 -1.803314487555308654 0.03125479981087999487 -1000 3.614007241618351614e-12 0 I I #
point $-1 -1 $-1 -1.313703410433561203 -1.803314487555308876 0.03125479981087999487 #
integer_attrib-name_attrib-gen-attrib $-1 -1 $799 $531 $417 copy keep_kept ignore copy @17 ???????-????????3 0 #
coedge $-1 -1 $-1 $800 $533 $801 $802 forward $317 $-1 #
coedge $-1 -1 $-1 $791 $790 $533 $663 reversed $792 $-1 #
edge $803 -1 $-1 $665 0 $804 0.0003566855124446914756 $533 $805 forward @7 unknown #
color-adesk-attrib $-1 -1 $-1 $-1 $535 256 #
vertex $-1 -1 $-1 $796 $806 #
straight-curve $-1 -1 $-1 -1.373703410433561034 -1.803314487555308654 0.4712547998108800318 -1000 3.614007241618351614e-12 0 I I #
point $-1 -1 $-1 -1.313703410433561203 -1.803314487555308876 0.4712547998108800318 #
coedge $-1 -1 $-1 $539 $807 $808 $809 forward $317 $-1 #
coedge $-1 -1 $-1 $781 $780 $539 $670 reversed $679 $-1 #
edge $810 -1 $-1 $811 -0.0003566855124446914756 $672 0 $539 $812 forward @7 unknown #
color-adesk-attrib $-1 -1 $-1 $-1 $541 256 #
vertex $-1 -1 $-1 $785 $813 #
straight-curve $-1 -1 $-1 -0.8337034104335609985 -1.803314487555308876 0.4712547998108800318 -1000 -3.614007241618351614e-12 -0 I I #
integer_attrib-name_attrib-gen-attrib $-1 -1 $814 $542 $422 copy keep_kept ignore copy @17 ???????-????????3 0 #
rgb_color-st-attrib $-1 -1 $-1 $549 $324 0.6901960784313725394 0.6117647058823529882 0.5294117647058823595 #
integer_attrib-name_attrib-gen-attrib $-1 -1 $815 $550 $433 copy keep_kept ignore copy @17 ???????-????????3 0 #
color-adesk-attrib $-1 -1 $816 $-1 $551 256 #
face $817 -1 $-1 $818 $819 $5 $-1 $820 forward single #
loop $-1 -1 $-1 $-1 $669 $551 #
plane-surface $-1 -1 $-1 -0.7737034104335610563 -1.803314487555308654 0.03125479981087999487 1 3.039658563798897875e-16 0 -3.039658563798897697e-13 1000 0 forward_v I I I I #
color-adesk-attrib $-1 -1 $-1 $-1 $554 256 #
straight-curve $-1 -1 $-1 1.226296589566439277 -1.803314487555308876 0.03125479981087999487 0 0 1000 I I #
coedge $-1 -1 $-1 $821 $555 $822 $823 reversed $228 $-1 #
coedge $-1 -1 $-1 $824 $825 $555 $685 forward $726 $-1 #
edge $826 -1 $-1 $827 0 $689 5.99999999999996085e-05 $684 $828 forward @7 unknown #
coedge $-1 -1 $-1 $580 $556 $558 $691 forward $592 $-1 #
coedge $-1 -1 $-1 $556 $580 $824 $829 reversed $592 $-1 #
color-adesk-attrib $-1 -1 $-1 $-1 $557 256 #
vertex $-1 -1 $-1 $829 $830 #
straight-curve $-1 -1 $-1 1.766296589566438646 -1.803314487555308654 0.03125479981087999487 0 1000 0 I I #
edge $831 -1 $-1 $560 0 $583 0.0004400000000000000699 $686 $832 forward @7 unknown #
point $-1 -1 $-1 1.766296589566438646 -1.803314487555308654 0.03125479981087999487 #
coedge $-1 -1 $-1 $562 $821 $833 $834 reversed $228 $-1 #
coedge $-1 -1 $-1 $835 $836 $562 $695 forward $837 $-1 #
edge $838 -1 $-1 $700 0 $839 6.000000000000005573e-05 $694 $840 forward @7 unknown #
coedge $-1 -1 $-1 $573 $563 $836 $841 forward $698 $-1 #
coedge $-1 -1 $-1 $563 $573 $565 $702 reversed $698 $-1 #
loop $-1 -1 $-1 $-1 $573 $842 #
color-adesk-attrib $-1 -1 $-1 $-1 $564 256 #
vertex $-1 -1 $-1 $841 $843 #
straight-curve $-1 -1 $-1 1.166296589566439224 -1.803314487555308654 0.03125479981087999487 0 -1000 0 I I #
edge $844 -1 $-1 $568 0 $576 0.0004400000000000000699 $565 $845 forward @7 unknown #
face $846 -1 $-1 $335 $566 $5 $-1 $847 forward single #
point $-1 -1 $-1 1.166296589566439224 -1.803314487555308654 0.03125479981087999487 #
rgb_color-st-attrib $-1 -1 $-1 $571 $335 0.6901960784313725394 0.6117647058823529882 0.5294117647058823595 #
coedge $-1 -1 $-1 $848 $572 $849 $850 forward $234 $-1 #
coedge $-1 -1 $-1 $836 $835 $572 $708 reversed $837 $-1 #
edge $851 -1 $-1 $710 0 $852 6.000000000000005573e-05 $572 $853 forward @7 unknown #
color-adesk-attrib $-1 -1 $-1 $-1 $574 256 #
vertex $-1 -1 $-1 $841 $854 #
straight-curve $-1 -1 $-1 1.166296589566439224 -1.803314487555308654 0.4712547998108800318 0 -1000 0 I I #
point $-1 -1 $-1 1.166296589566439224 -1.803314487555308654 0.4712547998108800318 #
coedge $-1 -1 $-1 $579 $848 $855 $856 forward $234 $-1 #
coedge $-1 -1 $-1 $825 $824 $579 $715 reversed $726 $-1 #
edge $857 -1 $-1 $858 0 $717 5.99999999999996085e-05 $579 $859 forward @7 unknown #
color-adesk-attrib $-1 -1 $-1 $-1 $581 256 #
vertex $-1 -1 $-1 $829 $860 #
straight-curve $-1 -1 $-1 1.766296589566438646 -1.803314487555308654 0.4712547998108800318 0 1000 0 I I #
point $-1 -1 $-1 1.766296589566438646 -1.803314487555308654 0.4712547998108800318 #
rgb_color-st-attrib $-1 -1 $-1 $585 $340 0.6901960784313725394 0.6117647058823529882 0.5294117647058823595 #
integer_attrib-name_attrib-gen-attrib $-1 -1 $861 $586 $457 copy keep_kept ignore copy @17 ???????-????????3 0 #
rgb_color-st-attrib $-1 -1 $-1 $589 $351 0.6901960784313725394 0.6117647058823529882 0.5294117647058823595 #
integer_attrib-name_attrib-gen-attrib $-1 -1 $862 $590 $466 copy keep_kept ignore copy @17 ???????-????????3 0 #
color-adesk-attrib $-1 -1 $863 $-1 $591 256 #
face $864 -1 $-1 $865 $866 $5 $-1 $867 forward single #
loop $-1 -1 $-1 $-1 $714 $591 #
plane-surface $-1 -1 $-1 1.706296589566439037 -2.160000000000000142 0.03125479981087999487 0 -1 0 0 0 -1000 forward_v I I I I #
coedge $-1 -1 $-1 $606 $596 $868 $869 reversed $152 $-1 #
coedge $-1 -1 $-1 $870 $871 $596 $730 forward $773 $-1 #
edge $872 -1 $-1 $873 -0.001000000000000000021 $734 0 $729 $874 forward @7 unknown #
coedge $-1 -1 $-1 $627 $597 $600 $736 forward $639 $-1 #
coedge $-1 -1 $-1 $597 $627 $870 $875 reversed $639 $-1 #
color-adesk-attrib $-1 -1 $-1 $-1 $598 256 #
vertex $-1 -1 $-1 $875 $876 #
straight-curve $-1 -1 $-1 0.4362965895664390192 -2.160000000000000142 0.03125479981087999487 1000 0 0 I I #
edge $877 -1 $-1 $602 0 $630 0.0004400000000000000699 $731 $878 forward @7 unknown #
point $-1 -1 $-1 0.4962965895664390725 -2.160000000000000142 0.03125479981087999487 #
color-adesk-attrib $-1 -1 $-1 $-1 $604 256 #
straight-curve $-1 -1 $-1 0.4962965895664389615 -1.803314487555308876 0.03125479981087999487 0 0 1000 I I #
coedge $-1 -1 $-1 $879 $880 $606 $741 forward $881 $-1 #
edge $882 -1 $-1 $746 0 $883 0.001000000000000000021 $740 $884 forward @7 unknown #
coedge $-1 -1 $-1 $620 $607 $880 $885 forward $744 $-1 #
coedge $-1 -1 $-1 $607 $620 $609 $748 reversed $744 $-1 #
loop $-1 -1 $-1 $-1 $620 $886 #
color-adesk-attrib $-1 -1 $-1 $-1 $608 256 #
vertex $-1 -1 $-1 $885 $887 #
straight-curve $-1 -1 $-1 -0.1037034104335608914 -2.160000000000000142 0.03125479981087999487 1000 0 0 I I #
edge $888 -1 $-1 $613 0 $623 0.0004400000000000000699 $609 $889 forward @7 unknown #
face $890 -1 $-1 $616 $611 $5 $-1 $891 forward single #
point $-1 -1 $-1 -0.1037034104335608914 -2.160000000000000142 0.03125479981087999487 #
color-adesk-attrib $-1 -1 $-1 $-1 $615 256 #
straight-curve $-1 -1 $-1 -0.1037034104335609469 -1.803314487555308876 0.03125479981087999487 0 0 1000 I I #
color-adesk-attrib $-1 -1 $892 $-1 $616 256 #
plane-surface $-1 -1 $-1 -0.1037034104335609469 -1.803314487555308876 0.03125479981087999487 0 1 0 0 0 1000 forward_v I I I I #
coedge $-1 -1 $-1 $626 $619 $893 $894 forward $158 $-1 #
coedge $-1 -1 $-1 $880 $879 $619 $757 reversed $881 $-1 #
edge $895 -1 $-1 $759 0 $896 0.001000000000000000021 $619 $897 forward @7 unknown #
color-adesk-attrib $-1 -1 $-1 $-1 $621 256 #
vertex $-1 -1 $-1 $885 $898 #
straight-curve $-1 -1 $-1 -0.1037034104335608914 -2.160000000000000142 0.4712547998108800318 1000 0 0 I I #
point $-1 -1 $-1 -0.1037034104335608914 -2.160000000000000142 0.4712547998108800318 #
coedge $-1 -1 $-1 $871 $870 $626 $763 reversed $773 $-1 #
edge $899 -1 $-1 $900 -0.001000000000000000021 $765 0 $626 $901 forward @7 unknown #
color-adesk-attrib $-1 -1 $-1 $-1 $628 256 #
vertex $-1 -1 $-1 $875 $902 #
straight-curve $-1 -1 $-1 0.4362965895664390192 -2.160000000000000142 0.4712547998108800318 1000 0 0 I I #
point $-1 -1 $-1 0.4962965895664390725 -2.160000000000000142 0.4712547998108800318 #
rgb_color-st-attrib $-1 -1 $-1 $634 $375 0.6901960784313725394 0.6117647058823529882 0.5294117647058823595 #
rgb_color-st-attrib $-1 -1 $-1 $636 $384 0.6901960784313725394 0.6117647058823529882 0.5294117647058823595 #
integer_attrib-name_attrib-gen-attrib $-1 -1 $903 $637 $506 copy keep_kept ignore copy @17 ???????-????????3 0 #
color-adesk-attrib $-1 -1 $904 $-1 $638 256 #
face $905 -1 $-1 $906 $907 $5 $-1 $908 forward single #
loop $-1 -1 $-1 $-1 $762 $638 #
plane-surface $-1 -1 $-1 0.4362965895664390192 -2.160000000000000142 0.03125479981087999487 1 1.084202172485504311e-16 0 -1.084202172485504308e-13 1000 0 forward_v I I I I #
color-adesk-attrib $-1 -1 $-1 $-1 $643 256 #
straight-curve $-1 -1 $-1 -1.313703410433561203 -1.803314487555308876 0.03125479981087999487 0 0 1000 I I #
coedge $-1 -1 $-1 $909 $644 $910 $911 reversed $311 $-1 #
coedge $-1 -1 $-1 $912 $913 $644 $779 forward $819 $-1 #
edge $914 -1 $-1 $915 0 $783 5.999999999999994053e-05 $778 $916 forward @7 unknown #
coedge $-1 -1 $-1 $669 $645 $647 $785 forward $679 $-1 #
coedge $-1 -1 $-1 $645 $669 $912 $917 reversed $679 $-1 #
color-adesk-attrib $-1 -1 $-1 $-1 $646 256 #
vertex $-1 -1 $-1 $917 $918 #
straight-curve $-1 -1 $-1 -0.7737034104335610563 -1.803314487555308654 0.03125479981087999487 -3.039658563798898202e-13 1000 0 I I #
edge $919 -1 $-1 $649 0 $672 0.0004400000000000000699 $780 $920 forward @7 unknown #
point $-1 -1 $-1 -0.7737034104335610563 -1.803314487555308654 0.03125479981087999487 #
coedge $-1 -1 $-1 $651 $909 $921 $922 reversed $311 $-1 #
coedge $-1 -1 $-1 $923 $924 $651 $789 forward $925 $-1 #
edge $926 -1 $-1 $794 0 $927 5.999999999999983211e-05 $788 $928 forward @7 unknown #
coedge $-1 -1 $-1 $662 $652 $924 $929 forward $792 $-1 #
coedge $-1 -1 $-1 $652 $662 $654 $796 reversed $792 $-1 #
loop $-1 -1 $-1 $-1 $662 $930 #
color-adesk-attrib $-1 -1 $-1 $-1 $653 256 #
vertex $-1 -1 $-1 $929 $931 #
straight-curve $-1 -1 $-1 -1.373703410433561034 -1.803314487555308654 0.03125479981087999487 0 -1000 0 I I #
edge $932 -1 $-1 $657 0 $665 0.0004400000000000000699 $654 $933 forward @7 unknown #
face $934 -1 $-1 $417 $655 $5 $-1 $935 forward single #
point $-1 -1 $-1 -1.373703410433561034 -1.803314487555308654 0.03125479981087999487 #
rgb_color-st-attrib $-1 -1 $-1 $660 $417 0.6901960784313725394 0.6117647058823529882 0.5294117647058823595 #
coedge $-1 -1 $-1 $936 $661 $937 $938 forward $317 $-1 #
coedge $-1 -1 $-1 $924 $923 $661 $802 reversed $925 $-1 #
edge $939 -1 $-1 $804 0 $940 5.999999999999983211e-05 $661 $941 forward @7 unknown #
color-adesk-attrib $-1 -1 $-1 $-1 $663 256 #
vertex $-1 -1 $-1 $929 $942 #
straight-curve $-1 -1 $-1 -1.373703410433561034 -1.803314487555308654 0.4712547998108800318 0 -1000 0 I I #
point $-1 -1 $-1 -1.373703410433561034 -1.803314487555308654 0.4712547998108800318 #
coedge $-1 -1 $-1 $668 $936 $943 $944 forward $317 $-1 #
coedge $-1 -1 $-1 $913 $912 $668 $809 reversed $819 $-1 #
edge $945 -1 $-1 $946 0 $811 5.999999999999994053e-05 $668 $947 forward @7 unknown #
color-adesk-attrib $-1 -1 $-1 $-1 $670 256 #
vertex $-1 -1 $-1 $917 $948 #
straight-curve $-1 -1 $-1 -0.7737034104335610563 -1.803314487555308654 0.4712547998108800318 -3.039658563798898202e-13 1000 0 I I #
point $-1 -1 $-1 -0.7737034104335610563 -1.803314487555308654 0.4712547998108800318 #
rgb_color-st-attrib $-1 -1 $-1 $674 $422 0.6901960784313725394 0.6117647058823529882 0.5294117647058823595 #
rgb_color-st-attrib $-1 -1 $-1 $676 $433 0.6901960784313725394 0.6117647058823529882 0.5294117647058823595 #
integer_attrib-name_attrib-gen-attrib $-1 -1 $949 $677 $551 copy keep_kept ignore copy @17 ???????-????????3 0 #
color-adesk-attrib $-1 -1 $950 $-1 $678 256 #
face $951 -1 $-1 $952 $953 $5 $-1 $954 forward single #
loop $-1 -1 $-1 $-1 $808 $678 #
plane-surface $-1 -1 $-1 -0.8337034104335608875 -2.160000000000000142 0.03125479981087999487 0 -1 0 0 0 -1000 forward_v I I I I #
coedge $-1 -1 $-1 $693 $683 $955 $956 reversed $228 $-1 #
coedge $-1 -1 $-1 $957 $958 $683 $823 forward $866 $-1 #
edge $959 -1 $-1 $960 -0.001000000000000000021 $827 0 $822 $961 forward @7 unknown #
coedge $-1 -1 $-1 $714 $684 $687 $829 forward $726 $-1 #
coedge $-1 -1 $-1 $684 $714 $957 $962 reversed $726 $-1 #
color-adesk-attrib $-1 -1 $-1 $-1 $685 256 #
vertex $-1 -1 $-1 $962 $963 #
straight-curve $-1 -1 $-1 1.706296589566439037 -2.160000000000000142 0.03125479981087999487 1000 0 0 I I #
edge $964 -1 $-1 $689 0 $717 0.0004400000000000000699 $824 $965 forward @7 unknown #
point $-1 -1 $-1 1.766296589566438646 -2.160000000000000142 0.03125479981087999487 #
color-adesk-attrib $-1 -1 $-1 $-1 $691 256 #
straight-curve $-1 -1 $-1 1.766296589566438646 -1.803314487555308654 0.03125479981087999487 0 0 1000 I I #
coedge $-1 -1 $-1 $966 $967 $693 $834 forward $968 $-1 #
edge $969 -1 $-1 $839 0 $970 0.001000000000000000021 $833 $971 forward @7 unknown #
coedge $-1 -1 $-1 $707 $694 $967 $972 forward $837 $-1 #
coedge $-1 -1 $-1 $694 $707 $696 $841 reversed $837 $-1 #
loop $-1 -1 $-1 $-1 $707 $973 #
color-adesk-attrib $-1 -1 $-1 $-1 $695 256 #
vertex $-1 -1 $-1 $972 $974 #
straight-curve $-1 -1 $-1 1.166296589566439224 -2.160000000000000142 0.03125479981087999487 1000 0 0 I I #
edge $975 -1 $-1 $700 0 $710 0.0004400000000000000699 $696 $976 forward @7 unknown #
face $977 -1 $-1 $703 $698 $5 $-1 $978 forward single #
point $-1 -1 $-1 1.166296589566439224 -2.160000000000000142 0.03125479981087999487 #
color-adesk-attrib $-1 -1 $-1 $-1 $702 256 #
straight-curve $-1 -1 $-1 1.166296589566439224 -1.803314487555308654 0.03125479981087999487 0 0 1000 I I #
color-adesk-attrib $-1 -1 $979 $-1 $703 256 #
plane-surface $-1 -1 $-1 1.166296589566439224 -1.803314487555308654 0.03125479981087999487 3.614007241618351532e-15 1 0 -1000 3.614007241618351614e-12 0 forward_v I I I I #
coedge $-1 -1 $-1 $713 $706 $980 $981 forward $234 $-1 #
coedge $-1 -1 $-1 $967 $966 $706 $850 reversed $968 $-1 #
edge $982 -1 $-1 $852 0 $983 0.001000000000000000021 $706 $984 forward @7 unknown #
color-adesk-attrib $-1 -1 $-1 $-1 $708 256 #
vertex $-1 -1 $-1 $972 $985 #
straight-curve $-1 -1 $-1 1.166296589566439224 -2.160000000000000142 0.4712547998108800318 1000 0 0 I I #
point $-1 -1 $-1 1.166296589566439224 -2.160000000000000142 0.4712547998108800318 #
coedge $-1 -1 $-1 $958 $957 $713 $856 reversed $866 $-1 #
edge $986 -1 $-1 $987 -0.001000000000000000021 $858 0 $713 $988 forward @7 unknown #
color-adesk-attrib $-1 -1 $-1 $-1 $715 256 #
vertex $-1 -1 $-1 $962 $989 #
straight-curve $-1 -1 $-1 1.706296589566439037 -2.160000000000000142 0.4712547998108800318 1000 0 0 I I #
point $-1 -1 $-1 1.766296589566438646 -2.160000000000000142 0.4712547998108800318 #
rgb_color-st-attrib $-1 -1 $-1 $721 $457 0.6901960784313725394 0.6117647058823529882 0.5294117647058823595 #
rgb_color-st-attrib $-1 -1 $-1 $723 $466 0.6901960784313725394 0.6117647058823529882 0.5294117647058823595 #
integer_attrib-name_attrib-gen-attrib $-1 -1 $990 $724 $591 copy keep_kept ignore copy @17 ???????-????????3 0 #
color-adesk-attrib $-1 -1 $991 $-1 $725 256 #
face $992 -1 $-1 $993 $994 $5 $-1 $995 forward single #
loop $-1 -1 $-1 $-1 $855 $725 #
plane-surface $-1 -1 $-1 1.706296589566439037 -2.160000000000000142 0.03125479981087999487 1 0 0 0 0 -1000 forward_v I I I I #
coedge $-1 -1 $-1 $996 $997 $728 $869 forward $907 $-1 #
edge $998 -1 $-1 $883 0 $873 0.0004799999999999999037 $868 $999 forward @7 unknown #
coedge $-1 -1 $-1 $762 $729 $732 $875 forward $773 $-1 #
coedge $-1 -1 $-1 $729 $762 $996 $1000 reversed $773 $-1 #
color-adesk-attrib $-1 -1 $-1 $-1 $730 256 #
vertex $-1 -1 $-1 $1000 $1001 #
straight-curve $-1 -1 $-1 0.4362965895664390192 -2.160000000000000142 0.03125479981087999487 -1.084202172485504434e-13 1000 0 I I #
edge $1002 -1 $-1 $734 0 $765 0.0004400000000000000699 $870 $1003 forward @7 unknown #
point $-1 -1 $-1 0.4362965895664390192 -2.160000000000000142 0.03125479981087999487 #
color-adesk-attrib $-1 -1 $-1 $-1 $736 256 #
straight-curve $-1 -1 $-1 0.4962965895664390725 -2.160000000000000142 0.03125479981087999487 0 0 1000 I I #
coedge $-1 -1 $-1 $756 $740 $997 $1004 forward $881 $-1 #
coedge $-1 -1 $-1 $740 $756 $742 $885 reversed $881 $-1 #
loop $-1 -1 $-1 $-1 $756 $906 #
color-adesk-attrib $-1 -1 $-1 $-1 $741 256 #
vertex $-1 -1 $-1 $1004 $1005 #
straight-curve $-1 -1 $-1 -0.04370341043356089361 -2.160000000000000142 0.03125479981087999487 1.084202172485504434e-13 -1000 0 I I #
edge $1006 -1 $-1 $746 0 $759 0.0004400000000000000699 $742 $1007 forward @7 unknown #
face $1008 -1 $-1 $749 $744 $5 $-1 $1009 forward single #
point $-1 -1 $-1 -0.04370341043356089361 -2.160000000000000142 0.03125479981087999487 #
color-adesk-attrib $-1 -1 $-1 $-1 $748 256 #
straight-curve $-1 -1 $-1 -0.1037034104335608914 -2.160000000000000142 0.03125479981087999487 0 0 1000 I I #
color-adesk-attrib $-1 -1 $1010 $-1 $749 256 #
plane-surface $-1 -1 $-1 -0.1037034104335609469 -1.803314487555308876 0.03125479981087999487 -1 -1.51982928189945017e-16 0 1.519829281899450111e-13 -1000 0 forward_v I I I I #
integer_attrib-name_attrib-gen-attrib $-1 -1 $1011 $753 $616 copy keep_kept ignore copy @17 ???????-????????3 0 #
coedge $-1 -1 $-1 $997 $996 $755 $894 reversed $907 $-1 #
edge $1012 -1 $-1 $896 0 $900 0.0004799999999999999037 $755 $1013 forward @7 unknown #
color-adesk-attrib $-1 -1 $-1 $-1 $757 256 #
vertex $-1 -1 $-1 $1004 $1014 #
straight-curve $-1 -1 $-1 -0.04370341043356089361 -2.160000000000000142 0.4712547998108800318 1.084202172485504434e-13 -1000 0 I I #
point $-1 -1 $-1 -0.04370341043356089361 -2.160000000000000142 0.4712547998108800318 #
color-adesk-attrib $-1 -1 $-1 $-1 $763 256 #
vertex $-1 -1 $-1 $1000 $1015 #
straight-curve $-1 -1 $-1 0.4362965895664390192 -2.160000000000000142 0.4712547998108800318 -1.084202172485504434e-13 1000 0 I I #
point $-1 -1 $-1 0.4362965895664390192 -2.160000000000000142 0.4712547998108800318 #
rgb_color-st-attrib $-1 -1 $-1 $770 $506 0.6901960784313725394 0.6117647058823529882 0.5294117647058823595 #
integer_attrib-name_attrib-gen-attrib $-1 -1 $1016 $771 $638 copy keep_kept ignore copy @17 ???????-????????3 0 #
color-adesk-attrib $-1 -1 $1017 $-1 $772 256 #
face $1018 -1 $-1 $886 $881 $5 $-1 $1019 forward single #
loop $-1 -1 $-1 $-1 $893 $772 #
plane-surface $-1 -1 $-1 -0.04370341043356078953 -3.160000000000000142 0.03125479981087999487 0 -1 0 0 0 -1000 forward_v I I I I #
coedge $-1 -1 $-1 $787 $777 $1020 $1021 reversed $311 $-1 #
coedge $-1 -1 $-1 $1022 $1023 $777 $911 forward $953 $-1 #
edge $1024 -1 $-1 $1025 -0.001000000000000000021 $915 0 $910 $1026 forward @7 unknown #
coedge $-1 -1 $-1 $808 $778 $781 $917 forward $819 $-1 #
coedge $-1 -1 $-1 $778 $808 $1022 $1027 reversed $819 $-1 #
color-adesk-attrib $-1 -1 $-1 $-1 $779 256 #
vertex $-1 -1 $-1 $1027 $1028 #
straight-curve $-1 -1 $-1 -0.8337034104335608875 -2.160000000000000142 0.03125479981087999487 1000 0 0 I I #
edge $1029 -1 $-1 $783 0 $811 0.0004400000000000000699 $912 $1030 forward @7 unknown #
point $-1 -1 $-1 -0.7737034104335609452 -2.160000000000000142 0.03125479981087999487 #
color-adesk-attrib $-1 -1 $-1 $-1 $785 256 #
straight-curve $-1 -1 $-1 -0.7737034104335610563 -1.803314487555308654 0.03125479981087999487 0 0 1000 I I #
coedge $-1 -1 $-1 $1031 $1032 $787 $922 forward $1033 $-1 #
edge $1034 -1 $-1 $927 0 $1035 0.001000000000000000021 $921 $1036 forward @7 unknown #
coedge $-1 -1 $-1 $801 $788 $1032 $1037 forward $925 $-1 #
coedge $-1 -1 $-1 $788 $801 $790 $929 reversed $925 $-1 #
loop $-1 -1 $-1 $-1 $801 $1038 #
color-adesk-attrib $-1 -1 $-1 $-1 $789 256 #
vertex $-1 -1 $-1 $1037 $1039 #
straight-curve $-1 -1 $-1 -1.373703410433561034 -2.160000000000000142 0.03125479981087999487 1000 0 0 I I #
edge $1040 -1 $-1 $794 0 $804 0.0004400000000000000699 $790 $1041 forward @7 unknown #
face $1042 -1 $-1 $797 $792 $5 $-1 $1043 forward single #
point $-1 -1 $-1 -1.373703410433561034 -2.160000000000000142 0.03125479981087999487 #
color-adesk-attrib $-1 -1 $-1 $-1 $796 256 #
straight-curve $-1 -1 $-1 -1.373703410433561034 -1.803314487555308654 0.03125479981087999487 0 0 1000 I I #
color-adesk-attrib $-1 -1 $1044 $-1 $797 256 #
plane-surface $-1 -1 $-1 -1.373703410433561034 -1.803314487555308654 0.03125479981087999487 3.614007241618351532e-15 1 0 -1000 3.614007241618351614e-12 0 forward_v I I I I #
coedge $-1 -1 $-1 $807 $800 $1045 $1046 forward $317 $-1 #
coedge $-1 -1 $-1 $1032 $1031 $800 $938 reversed $1033 $-1 #
edge $1047 -1 $-1 $940 0 $1048 0.001000000000000000021 $800 $1049 forward @7 unknown #
color-adesk-attrib $-1 -1 $-1 $-1 $802 256 #
vertex $-1 -1 $-1 $1037 $1050 #
straight-curve $-1 -1 $-1 -1.373703410433561034 -2.160000000000000142 0.4712547998108800318 1000 0 0 I I #
point $-1 -1 $-1 -1.373703410433561034 -2.160000000000000142 0.4712547998108800318 #
coedge $-1 -1 $-1 $1023 $1022 $807 $944 reversed $953 $-1 #
edge $1051 -1 $-1 $1052 -0.001000000000000000021 $946 0 $807 $1053 forward @7 unknown #
color-adesk-attrib $-1 -1 $-1 $-1 $809 256 #
vertex $-1 -1 $-1 $1027 $1054 #
straight-curve $-1 -1 $-1 -0.8337034104335608875 -2.160000000000000142 0.4712547998108800318 1000 0 0 I I #
point $-1 -1 $-1 -0.7737034104335609452 -2.160000000000000142 0.4712547998108800318 #
rgb_color-st-attrib $-1 -1 $-1 $816 $551 0.6901960784313725394 0.6117647058823529882 0.5294117647058823595 #
integer_attrib-name_attrib-gen-attrib $-1 -1 $1055 $817 $678 copy keep_kept ignore copy @17 ???????-????????3 0 #
color-adesk-attrib $-1 -1 $1056 $-1 $818 256 #
face $1057 -1 $-1 $1058 $1059 $5 $-1 $1060 forward single #
loop $-1 -1 $-1 $-1 $943 $818 #
plane-surface $-1 -1 $-1 -0.8337034104335608875 -2.160000000000000142 0.03125479981087999487 1 0 0 0 0 -1000 forward_v I I I I #
coedge $-1 -1 $-1 $1061 $1062 $821 $956 forward $994 $-1 #
edge $1063 -1 $-1 $970 0 $960 0.0004799999999999995243 $955 $1064 forward @7 unknown #
coedge $-1 -1 $-1 $855 $822 $825 $962 forward $866 $-1 #
coedge $-1 -1 $-1 $822 $855 $1061 $1065 reversed $866 $-1 #
color-adesk-attrib $-1 -1 $-1 $-1 $823 256 #
vertex $-1 -1 $-1 $1065 $1066 #
straight-curve $-1 -1 $-1 1.706296589566439037 -2.160000000000000142 0.03125479981087999487 0 1000 0 I I #
edge $1067 -1 $-1 $827 0 $858 0.0004400000000000000699 $957 $1068 forward @7 unknown #
point $-1 -1 $-1 1.706296589566439037 -2.160000000000000142 0.03125479981087999487 #
color-adesk-attrib $-1 -1 $-1 $-1 $829 256 #
straight-curve $-1 -1 $-1 1.766296589566438646 -2.160000000000000142 0.03125479981087999487 0 0 1000 I I #
coedge $-1 -1 $-1 $849 $833 $1062 $1069 forward $968 $-1 #
coedge $-1 -1 $-1 $833 $849 $835 $972 reversed $968 $-1 #
loop $-1 -1 $-1 $-1 $849 $993 #
color-adesk-attrib $-1 -1 $-1 $-1 $834 256 #
vertex $-1 -1 $-1 $1069 $1070 #
straight-curve $-1 -1 $-1 1.226296589566439277 -2.160000000000000142 0.03125479981087999487 2.168404344971008868e-13 -1000 0 I I #
edge $1071 -1 $-1 $839 0 $852 0.0004400000000000000699 $835 $1072 forward @7 unknown #
face $1073 -1 $-1 $842 $837 $5 $-1 $1074 forward single #
point $-1 -1 $-1 1.226296589566439277 -2.160000000000000142 0.03125479981087999487 #
color-adesk-attrib $-1 -1 $-1 $-1 $841 256 #
straight-curve $-1 -1 $-1 1.166296589566439224 -2.160000000000000142 0.03125479981087999487 0 0 1000 I I #
color-adesk-attrib $-1 -1 $1075 $-1 $842 256 #
plane-surface $-1 -1 $-1 1.166296589566439224 -1.803314487555308654 0.03125479981087999487 -1 0 0 0 0 1000 forward_v I I I I #
integer_attrib-name_attrib-gen-attrib $-1 -1 $1076 $846 $703 copy keep_kept ignore copy @17 ???????-????????3 0 #
coedge $-1 -1 $-1 $1062 $1061 $848 $981 reversed $994 $-1 #
edge $1077 -1 $-1 $983 0 $987 0.0004799999999999995243 $848 $1078 forward @7 unknown #
color-adesk-attrib $-1 -1 $-1 $-1 $850 256 #
vertex $-1 -1 $-1 $1069 $1079 #
straight-curve $-1 -1 $-1 1.226296589566439277 -2.160000000000000142 0.4712547998108800318 2.168404344971008868e-13 -1000 0 I I #
point $-1 -1 $-1 1.226296589566439277 -2.160000000000000142 0.4712547998108800318 #
color-adesk-attrib $-1 -1 $-1 $-1 $856 256 #
vertex $-1 -1 $-1 $1065 $1080 #
straight-curve $-1 -1 $-1 1.706296589566439037 -2.160000000000000142 0.4712547998108800318 0 1000 0 I I #
point $-1 -1 $-1 1.706296589566439037 -2.160000000000000142 0.4712547998108800318 #
rgb_color-st-attrib $-1 -1 $-1 $863 $591 0.6901960784313725394 0.6117647058823529882 0.5294117647058823595 #
integer_attrib-name_attrib-gen-attrib $-1 -1 $1081 $864 $725 copy keep_kept ignore copy @17 ???????-????????3 0 #
color-adesk-attrib $-1 -1 $1082 $-1 $865 256 #
face $1083 -1 $-1 $973 $968 $5 $-1 $1084 forward single #
loop $-1 -1 $-1 $-1 $980 $865 #
plane-surface $-1 -1 $-1 1.226296589566439499 -3.160000000000000142 0.03125479981087999487 0 -1 0 0 0 -1000 forward_v I I I I #
coedge $-1 -1 $-1 $893 $868 $871 $1000 forward $907 $-1 #
coedge $-1 -1 $-1 $868 $893 $879 $1004 reversed $907 $-1 #
color-adesk-attrib $-1 -1 $-1 $-1 $869 256 #
straight-curve $-1 -1 $-1 -0.04370341043356078953 -3.160000000000000142 0.03125479981087999487 1000 0 0 I I #
edge $1085 -1 $-1 $873 0 $900 0.0004400000000000000699 $996 $1086 forward @7 unknown #
point $-1 -1 $-1 0.4362965895664391303 -3.160000000000000142 0.03125479981087999487 #
color-adesk-attrib $-1 -1 $-1 $-1 $875 256 #
straight-curve $-1 -1 $-1 0.4362965895664390192 -2.160000000000000142 0.03125479981087999487 0 0 1000 I I #
edge $1087 -1 $-1 $883 0 $896 0.0004400000000000000699 $879 $1088 forward @7 unknown #
point $-1 -1 $-1 -0.04370341043356078953 -3.160000000000000142 0.03125479981087999487 #
color-adesk-attrib $-1 -1 $-1 $-1 $885 256 #
straight-curve $-1 -1 $-1 -0.04370341043356089361 -2.160000000000000142 0.03125479981087999487 0 0 1000 I I #
color-adesk-attrib $-1 -1 $1089 $-1 $886 256 #
plane-surface $-1 -1 $-1 -0.1037034104335608914 -2.160000000000000142 0.03125479981087999487 0 -1 0 0 0 -1000 forward_v I I I I #
integer_attrib-name_attrib-gen-attrib $-1 -1 $1090 $890 $749 copy keep_kept ignore copy @17 ???????-????????3 0 #
rgb_color-st-attrib $-1 -1 $-1 $892 $616 0.6901960784313725394 0.6117647058823529882 0.5294117647058823595 #
color-adesk-attrib $-1 -1 $-1 $-1 $894 256 #
straight-curve $-1 -1 $-1 -0.04370341043356078953 -3.160000000000000142 0.4712547998108800318 1000 0 0 I I #
point $-1 -1 $-1 -0.04370341043356078953 -3.160000000000000142 0.4712547998108800318 #
point $-1 -1 $-1 0.4362965895664391303 -3.160000000000000142 0.4712547998108800318 #
rgb_color-st-attrib $-1 -1 $-1 $904 $638 0.6901960784313725394 0.6117647058823529882 0.5294117647058823595 #
integer_attrib-name_attrib-gen-attrib $-1 -1 $1091 $905 $772 copy keep_kept ignore copy @17 ???????-????????3 0 #
color-adesk-attrib $-1 -1 $1092 $-1 $906 256 #
plane-surface $-1 -1 $-1 -0.04370341043356089361 -2.160000000000000142 0.03125479981087999487 -1 -1.084202172485504311e-16 0 1.084202172485504308e-13 -1000 0 forward_v I I I I #
coedge $-1 -1 $-1 $1093 $1094 $909 $1021 forward $1059 $-1 #
edge $1095 -1 $-1 $1035 0 $1025 0.0004800000000000000664 $1020 $1096 forward @7 unknown #
coedge $-1 -1 $-1 $943 $910 $913 $1027 forward $953 $-1 #
coedge $-1 -1 $-1 $910 $943 $1093 $1097 reversed $953 $-1 #
color-adesk-attrib $-1 -1 $-1 $-1 $911 256 #
vertex $-1 -1 $-1 $1097 $1098 #
straight-curve $-1 -1 $-1 -0.8337034104335608875 -2.160000000000000142 0.03125479981087999487 0 1000 0 I I #
edge $1099 -1 $-1 $915 0 $946 0.0004400000000000000699 $1022 $1100 forward @7 unknown #
point $-1 -1 $-1 -0.8337034104335608875 -2.160000000000000142 0.03125479981087999487 #
color-adesk-attrib $-1 -1 $-1 $-1 $917 256 #
straight-curve $-1 -1 $-1 -0.7737034104335609452 -2.160000000000000142 0.03125479981087999487 0 0 1000 I I #
coedge $-1 -1 $-1 $937 $921 $1094 $1101 forward $1033 $-1 #
coedge $-1 -1 $-1 $921 $937 $923 $1037 reversed $1033 $-1 #
loop $-1 -1 $-1 $-1 $937 $1058 #
color-adesk-attrib $-1 -1 $-1 $-1 $922 256 #
vertex $-1 -1 $-1 $1101 $1102 #
straight-curve $-1 -1 $-1 -1.313703410433561203 -2.160000000000000142 0.03125479981087999487 2.168404344971008868e-13 -1000 0 I I #
edge $1103 -1 $-1 $927 0 $940 0.0004400000000000000699 $923 $1104 forward @7 unknown #
face $1105 -1 $-1 $930 $925 $5 $-1 $1106 forward single #
point $-1 -1 $-1 -1.313703410433561203 -2.160000000000000142 0.03125479981087999487 #
color-adesk-attrib $-1 -1 $-1 $-1 $929 256 #
straight-curve $-1 -1 $-1 -1.373703410433561034 -2.160000000000000142 0.03125479981087999487 0 0 1000 I I #
color-adesk-attrib $-1 -1 $1107 $-1 $930 256 #
plane-surface $-1 -1 $-1 -1.373703410433561034 -1.803314487555308654 0.03125479981087999487 -1 0 0 0 0 1000 forward_v I I I I #
integer_attrib-name_attrib-gen-attrib $-1 -1 $1108 $934 $797 copy keep_kept ignore copy @17 ???????-????????3 0 #
coedge $-1 -1 $-1 $1094 $1093 $936 $1046 reversed $1059 $-1 #
edge $1109 -1 $-1 $1048 0 $1052 0.0004800000000000000664 $936 $1110 forward @7 unknown #
color-adesk-attrib $-1 -1 $-1 $-1 $938 256 #
vertex $-1 -1 $-1 $1101 $1111 #
straight-curve $-1 -1 $-1 -1.313703410433561203 -2.160000000000000142 0.4712547998108800318 2.168404344971008868e-13 -1000 0 I I #
point $-1 -1 $-1 -1.313703410433561203 -2.160000000000000142 0.4712547998108800318 #
color-adesk-attrib $-1 -1 $-1 $-1 $944 256 #
vertex $-1 -1 $-1 $1097 $1112 #
straight-curve $-1 -1 $-1 -0.8337034104335608875 -2.160000000000000142 0.4712547998108800318 0 1000 0 I I #
point $-1 -1 $-1 -0.8337034104335608875 -2.160000000000000142 0.4712547998108800318 #
rgb_color-st-attrib $-1 -1 $-1 $950 $678 0.6901960784313725394 0.6117647058823529882 0.5294117647058823595 #
integer_attrib-name_attrib-gen-attrib $-1 -1 $1113 $951 $818 copy keep_kept ignore copy @17 ???????-????????3 0 #
color-adesk-attrib $-1 -1 $1114 $-1 $952 256 #
face $1115 -1 $-1 $1038 $1033 $5 $-1 $1116 forward single #
loop $-1 -1 $-1 $-1 $1045 $952 #
plane-surface $-1 -1 $-1 -1.313703410433560981 -3.160000000000000142 0.03125479981087999487 0 -1 0 0 0 -1000 forward_v I I I I #
coedge $-1 -1 $-1 $980 $955 $958 $1065 forward $994 $-1 #
coedge $-1 -1 $-1 $955 $980 $966 $1069 reversed $994 $-1 #
color-adesk-attrib $-1 -1 $-1 $-1 $956 256 #
straight-curve $-1 -1 $-1 1.226296589566439499 -3.160000000000000142 0.03125479981087999487 1000 0 0 I I #
edge $1117 -1 $-1 $960 0 $987 0.0004400000000000000699 $1061 $1118 forward @7 unknown #
point $-1 -1 $-1 1.706296589566439037 -3.160000000000000142 0.03125479981087999487 #
color-adesk-attrib $-1 -1 $-1 $-1 $962 256 #
straight-curve $-1 -1 $-1 1.706296589566439037 -2.160000000000000142 0.03125479981087999487 0 0 1000 I I #
edge $1119 -1 $-1 $970 0 $983 0.0004400000000000000699 $966 $1120 forward @7 unknown #
point $-1 -1 $-1 1.226296589566439499 -3.160000000000000142 0.03125479981087999487 #
color-adesk-attrib $-1 -1 $-1 $-1 $972 256 #
straight-curve $-1 -1 $-1 1.226296589566439277 -2.160000000000000142 0.03125479981087999487 0 0 1000 I I #
color-adesk-attrib $-1 -1 $1121 $-1 $973 256 #
plane-surface $-1 -1 $-1 1.166296589566439224 -2.160000000000000142 0.03125479981087999487 0 -1 0 0 0 -1000 forward_v I I I I #
integer_attrib-name_attrib-gen-attrib $-1 -1 $1122 $977 $842 copy keep_kept ignore copy @17 ???????-????????3 0 #
rgb_color-st-attrib $-1 -1 $-1 $979 $703 0.6901960784313725394 0.6117647058823529882 0.5294117647058823595 #
color-adesk-attrib $-1 -1 $-1 $-1 $981 256 #
straight-curve $-1 -1 $-1 1.226296589566439499 -3.160000000000000142 0.4712547998108800318 1000 0 0 I I #
point $-1 -1 $-1 1.226296589566439499 -3.160000000000000142 0.4712547998108800318 #
point $-1 -1 $-1 1.706296589566439037 -3.160000000000000142 0.4712547998108800318 #
rgb_color-st-attrib $-1 -1 $-1 $991 $725 0.6901960784313725394 0.6117647058823529882 0.5294117647058823595 #
integer_attrib-name_attrib-gen-attrib $-1 -1 $1123 $992 $865 copy keep_kept ignore copy @17 ???????-????????3 0 #
color-adesk-attrib $-1 -1 $1124 $-1 $993 256 #
plane-surface $-1 -1 $-1 1.226296589566439277 -2.160000000000000142 0.03125479981087999487 -1 -2.168404344971008621e-16 0 2.168404344971008616e-13 -1000 0 forward_v I I I I #
color-adesk-attrib $-1 -1 $-1 $-1 $1000 256 #
straight-curve $-1 -1 $-1 0.4362965895664391303 -3.160000000000000142 0.03125479981087999487 0 0 1000 I I #
color-adesk-attrib $-1 -1 $-1 $-1 $1004 256 #
straight-curve $-1 -1 $-1 -0.04370341043356078953 -3.160000000000000142 0.03125479981087999487 0 0 1000 I I #
integer_attrib-name_attrib-gen-attrib $-1 -1 $1125 $1008 $886 copy keep_kept ignore copy @17 ???????-????????3 0 #
rgb_color-st-attrib $-1 -1 $-1 $1010 $749 0.6901960784313725394 0.6117647058823529882 0.5294117647058823595 #
rgb_color-st-attrib $-1 -1 $-1 $1017 $772 0.6901960784313725394 0.6117647058823529882 0.5294117647058823595 #
integer_attrib-name_attrib-gen-attrib $-1 -1 $1126 $1018 $906 copy keep_kept ignore copy @17 ???????-????????3 0 #
coedge $-1 -1 $-1 $1045 $1020 $1023 $1097 forward $1059 $-1 #
coedge $-1 -1 $-1 $1020 $1045 $1031 $1101 reversed $1059 $-1 #
color-adesk-attrib $-1 -1 $-1 $-1 $1021 256 #
straight-curve $-1 -1 $-1 -1.313703410433560981 -3.160000000000000142 0.03125479981087999487 1000 0 0 I I #
edge $1127 -1 $-1 $1025 0 $1052 0.0004400000000000000699 $1093 $1128 forward @7 unknown #
point $-1 -1 $-1 -0.8337034104335608875 -3.160000000000000142 0.03125479981087999487 #
color-adesk-attrib $-1 -1 $-1 $-1 $1027 256 #
straight-curve $-1 -1 $-1 -0.8337034104335608875 -2.160000000000000142 0.03125479981087999487 0 0 1000 I I #
edge $1129 -1 $-1 $1035 0 $1048 0.0004400000000000000699 $1031 $1130 forward @7 unknown #
point $-1 -1 $-1 -1.313703410433560981 -3.160000000000000142 0.03125479981087999487 #
color-adesk-attrib $-1 -1 $-1 $-1 $1037 256 #
straight-curve $-1 -1 $-1 -1.313703410433561203 -2.160000000000000142 0.03125479981087999487 0 0 1000 I I #
color-adesk-attrib $-1 -1 $1131 $-1 $1038 256 #
plane-surface $-1 -1 $-1 -1.373703410433561034 -2.160000000000000142 0.03125479981087999487 0 -1 0 0 0 -1000 forward_v I I I I #
integer_attrib-name_attrib-gen-attrib $-1 -1 $1132 $1042 $930 copy keep_kept ignore copy @17 ???????-????????3 0 #
rgb_color-st-attrib $-1 -1 $-1 $1044 $797 0.6901960784313725394 0.6117647058823529882 0.5294117647058823595 #
color-adesk-attrib $-1 -1 $-1 $-1 $1046 256 #
straight-curve $-1 -1 $-1 -1.313703410433560981 -3.160000000000000142 0.4712547998108800318 1000 0 0 I I #
point $-1 -1 $-1 -1.313703410433560981 -3.160000000000000142 0.4712547998108800318 #
point $-1 -1 $-1 -0.8337034104335608875 -3.160000000000000142 0.4712547998108800318 #
rgb_color-st-attrib $-1 -1 $-1 $1056 $818 0.6901960784313725394 0.6117647058823529882 0.5294117647058823595 #
integer_attrib-name_attrib-gen-attrib $-1 -1 $1133 $1057 $952 copy keep_kept ignore copy @17 ???????-????????3 0 #
color-adesk-attrib $-1 -1 $1134 $-1 $1058 256 #
plane-surface $-1 -1 $-1 -1.313703410433561203 -2.160000000000000142 0.03125479981087999487 -1 -2.168404344971008621e-16 0 2.168404344971008616e-13 -1000 0 forward_v I I I I #
color-adesk-attrib $-1 -1 $-1 $-1 $1065 256 #
straight-curve $-1 -1 $-1 1.706296589566439037 -3.160000000000000142 0.03125479981087999487 0 0 1000 I I #
color-adesk-attrib $-1 -1 $-1 $-1 $1069 256 #
straight-curve $-1 -1 $-1 1.226296589566439499 -3.160000000000000142 0.03125479981087999487 0 0 1000 I I #
integer_attrib-name_attrib-gen-attrib $-1 -1 $1135 $1073 $973 copy keep_kept ignore copy @17 ???????-????????3 0 #
rgb_color-st-attrib $-1 -1 $-1 $1075 $842 0.6901960784313725394 0.6117647058823529882 0.5294117647058823595 #
rgb_color-st-attrib $-1 -1 $-1 $1082 $865 0.6901960784313725394 0.6117647058823529882 0.5294117647058823595 #
integer_attrib-name_attrib-gen-attrib $-1 -1 $1136 $1083 $993 copy keep_kept ignore copy @17 ???????-????????3 0 #
rgb_color-st-attrib $-1 -1 $-1 $1089 $886 0.6901960784313725394 0.6117647058823529882 0.5294117647058823595 #
rgb_color-st-attrib $-1 -1 $-1 $1092 $906 0.6901960784313725394 0.6117647058823529882 0.5294117647058823595 #
color-adesk-attrib $-1 -1 $-1 $-1 $1097 256 #
straight-curve $-1 -1 $-1 -0.8337034104335608875 -3.160000000000000142 0.03125479981087999487 0 0 1000 I I #
color-adesk-attrib $-1 -1 $-1 $-1 $1101 256 #
straight-curve $-1 -1 $-1 -1.313703410433560981 -3.160000000000000142 0.03125479981087999487 0 0 1000 I I #
integer_attrib-name_attrib-gen-attrib $-1 -1 $1137 $1105 $1038 copy keep_kept ignore copy @17 ???????-????????3 0 #
rgb_color-st-attrib $-1 -1 $-1 $1107 $930 0.6901960784313725394 0.6117647058823529882 0.5294117647058823595 #
rgb_color-st-attrib $-1 -1 $-1 $1114 $952 0.6901960784313725394 0.6117647058823529882 0.5294117647058823595 #
integer_attrib-name_attrib-gen-attrib $-1 -1 $1138 $1115 $1058 copy keep_kept ignore copy @17 ???????-????????3 0 #
rgb_color-st-attrib $-1 -1 $-1 $1121 $973 0.6901960784313725394 0.6117647058823529882 0.5294117647058823595 #
rgb_color-st-attrib $-1 -1 $-1 $1124 $993 0.6901960784313725394 0.6117647058823529882 0.5294117647058823595 #
rgb_color-st-attrib $-1 -1 $-1 $1131 $1038 0.6901960784313725394 0.6117647058823529882 0.5294117647058823595 #
rgb_color-st-attrib $-1 -1 $-1 $1134 $1058 0.6901960784313725394 0.6117647058823529882 0.5294117647058823595 #
